<svg width="32" height="32" viewBox="0 0 32 32" fill="none" xmlns="http://www.w3.org/2000/svg">
<path d="M13.3385 20.0001L20.2585 16.0001L13.3385 12.0001V20.0001ZM28.7519 9.56008C28.9252 10.1867 29.0452 11.0267 29.1252 12.0934C29.2185 13.1601 29.2585 14.0801 29.2585 14.8801L29.3385 16.0001C29.3385 18.9201 29.1252 21.0667 28.7519 22.4401C28.4185 23.6401 27.6452 24.4134 26.4452 24.7467C25.8185 24.9201 24.6719 25.0401 22.9119 25.1201C21.1785 25.2134 19.5919 25.2534 18.1252 25.2534L16.0052 25.3334C10.4185 25.3334 6.93854 25.1201 5.56521 24.7467C4.36521 24.4134 3.59188 23.6401 3.25854 22.4401C3.08521 21.8134 2.96521 20.9734 2.88521 19.9067C2.79188 18.8401 2.75187 17.9201 2.75187 17.1201L2.67188 16.0001C2.67188 13.0801 2.88521 10.9334 3.25854 9.56008C3.59188 8.36008 4.36521 7.58675 5.56521 7.25341C6.19187 7.08008 7.33854 6.96008 9.09854 6.88008C10.8319 6.78675 12.4185 6.74675 13.8852 6.74675L16.0052 6.66675C21.5919 6.66675 25.0719 6.88008 26.4452 7.25341C27.6452 7.58675 28.4185 8.36008 28.7519 9.56008Z" stroke="#333333" stroke-width="1.2"/>
</svg>
