<svg width="32" height="32" viewBox="0 0 32 32" fill="none" xmlns="http://www.w3.org/2000/svg">
<path d="M2.40625 8.01345H7.07998C7.22943 15.7073 10.6532 18.9624 13.3705 19.6349V8.01345H17.7589V14.6447C20.4354 14.3622 23.2614 11.3358 24.2124 8H28.5873C28.2307 9.72681 27.5182 11.3622 26.4943 12.8041C25.4703 14.2459 24.157 15.4632 22.6364 16.3798C24.3334 17.2157 25.8321 18.3984 27.0335 19.8498C28.235 21.3013 29.1118 22.9884 29.6062 24.8H24.7831C23.7505 21.6122 21.1691 19.1372 17.7589 18.801V24.8H17.2154C7.92233 24.8 2.62363 18.505 2.40625 8.01345Z" stroke="#333333" stroke-width="1.2"/>
</svg>
