<svg width="48" height="48" viewBox="0 0 48 48" fill="none" xmlns="http://www.w3.org/2000/svg">
<path d="M3.60001 12.0202H10.6106C10.8348 23.5609 15.9704 28.4436 20.0464 29.4524V12.0202H26.629V21.967C30.6438 21.5433 34.8827 17.0037 36.3093 12H42.8715C42.3367 14.5902 41.2679 17.0434 39.732 19.2061C38.1961 21.3689 36.2262 23.1948 33.9453 24.5697C36.4908 25.8236 38.7388 27.5976 40.5409 29.7748C42.3431 31.9519 43.6584 34.4826 44.4 37.2H37.1652C35.6164 32.4183 31.7443 28.7058 26.629 28.2014V37.2H25.8138C11.8741 37.2 3.92608 27.7576 3.60001 12.0202Z" stroke="white" stroke-width="1.2"/>
</svg>
