<svg width="360" height="360" viewBox="0 0 360 360" fill="none" xmlns="http://www.w3.org/2000/svg">
<g clip-path="url(#clip0_937_1863)">
<path d="M245.024 239.527C262.366 215.42 273.028 187.719 276.356 158.479L180 131.08L83.6445 158.479C86.9719 187.718 97.6334 215.42 114.976 239.527C131.862 262.997 154.271 281.88 180 294.37C205.73 281.88 228.139 262.997 245.024 239.527Z" fill="#671252"/>
<path d="M180.001 108.724L277.484 136.445V91.732L180.001 64.0115L82.5171 91.732V136.445L180.001 108.724Z" fill="#671252"/>
<path d="M190.752 0V44.7127L298.988 75.4909V138.583C298.988 179.638 286.364 218.886 262.481 252.086C243.81 278.037 219.114 298.998 190.752 313.044V360.001C233.58 343.312 270.336 314.811 297.392 277.201C326.571 236.641 341.995 188.707 341.995 138.583V43.0074L190.752 0Z" fill="#450435"/>
<path d="M169.249 313.043C140.887 298.997 116.19 278.036 97.5208 252.085C73.6374 218.886 61.0133 179.638 61.0133 138.582V75.4902L169.249 44.7119V0L18.0059 43.0074V138.582C18.0059 188.706 33.4297 236.64 62.6088 277.201C89.6655 314.811 126.422 343.311 169.249 360V313.043Z" fill="#450435"/>
</g>
<defs>
<clipPath id="clip0_937_1863">
<rect width="360" height="360" fill="white"/>
</clipPath>
</defs>
</svg>
