<svg width="360" height="360" viewBox="0 0 360 360" fill="none" xmlns="http://www.w3.org/2000/svg">
<g clip-path="url(#clip0_937_1858)">
<path d="M237.588 252.297L254.05 225.584L283.759 215.452L287.05 184.249L309.402 162.245L298.775 132.709L309.402 103.173L287.051 81.1688L283.759 49.9669L254.051 39.8348L237.589 13.121L206.451 16.8806L180 0L153.549 16.882L122.412 13.1224L105.95 39.8355L76.2411 49.9676L72.9498 81.1695L50.5981 103.174L61.2252 132.71L50.5981 162.246L72.9491 184.25L76.2404 215.452L105.949 225.584L122.411 252.297L153.549 248.539L180 265.42L206.451 248.539L237.588 252.297ZM88.9951 132.71C88.9951 82.53 129.82 41.7052 180 41.7052C230.18 41.7052 271.005 82.53 271.005 132.71C271.005 182.89 230.18 223.715 180 223.715C129.82 223.715 88.9951 182.89 88.9951 132.71Z" fill="#450435"/>
<path d="M180 62.8123C141.458 62.8123 110.103 94.1681 110.103 132.71C110.103 171.252 141.458 202.608 180 202.608C218.542 202.608 249.898 171.252 249.898 132.71C249.898 94.1681 218.542 62.8123 180 62.8123Z" fill="#671252"/>
<path d="M148.57 270.399L111.529 274.871L91.959 243.113L85.306 240.845L56.6094 330.54L108.271 327.698L148.691 360L172.476 285.657L148.57 270.399Z" fill="#671252"/>
<path d="M268.041 243.114L248.47 274.871L211.43 270.399L187.524 285.657L211.309 360L251.728 327.698L303.391 330.54L274.694 240.845L268.041 243.114Z" fill="#671252"/>
</g>
<defs>
<clipPath id="clip0_937_1858">
<rect width="360" height="360" fill="white"/>
</clipPath>
</defs>
</svg>
