<svg width="56" height="56" viewBox="0 0 56 56" fill="none" xmlns="http://www.w3.org/2000/svg">
<path fill-rule="evenodd" clip-rule="evenodd" d="M0 1.64062H56V4.92188H19.7969V11.4844H16.5156V14.875L39.2109 14.9297L39.9766 15.3016C40.4469 15.5312 40.9828 15.9141 41.3547 16.2859C41.7156 16.6469 42.0984 17.1828 42.3062 17.6094C42.5141 18.0469 42.6891 18.6266 42.7547 19.1406C42.8203 19.5891 42.875 22.2687 42.875 30.2422L39.4844 33.6328V37.8438H36.2031V33.6328L32.9219 30.3516V24.7188H22.0063C12.5562 24.7188 11.0031 24.6969 10.3906 24.5437C9.99687 24.4562 9.43906 24.2484 9.14375 24.0844C8.84844 23.9203 8.34531 23.5156 8.01719 23.1875C7.66719 22.8484 7.28438 22.3016 7.10938 21.9297C6.94531 21.5688 6.74844 21.0109 6.68281 20.6938C6.60625 20.3328 6.5625 18.5391 6.5625 11.4844H3.28125V4.92188H0L0 1.64062ZM6.5625 8.20312H16.5156L16.4609 4.97656L6.5625 4.92188V8.20312ZM9.87656 13.2891L9.89844 14.8203L13.125 14.875V11.4844C10.3359 11.4844 9.94219 11.5172 9.89844 11.6266C9.87656 11.7031 9.86563 12.4578 9.87656 13.2891ZM9.84375 19.0531C9.85469 19.6875 9.90938 20.0922 10.0516 20.3984C10.15 20.6391 10.4125 20.9562 10.6203 21.1094C10.9484 21.3391 11.1234 21.3828 12.0641 21.4047L13.125 21.4375V18.1562H9.84375V19.0531ZM16.5156 21.4266H19.7969V18.1453H16.5156V21.4266ZM23.0781 21.4266H26.3594V18.1453H23.0781V21.4266ZM29.6406 21.4266H32.9219V18.1453H29.6406V21.4266ZM36.2031 21.4266H39.4844C39.4844 19.4906 39.4406 19.2281 39.2656 18.9438C39.1453 18.7469 38.8828 18.4844 38.6859 18.3641C38.4016 18.1891 38.1391 18.1453 37.2641 18.1453H36.2031V21.4266ZM36.2031 28.9187L37.8984 30.6141L39.4844 29.0281V24.7078H36.2031V28.9187ZM4.92188 31.2703H28V41.1141H38.5766C44.3953 41.1141 49.5578 41.1688 50.0391 41.2234C50.5203 41.2781 51.2094 41.4203 51.5703 41.5516C51.9313 41.6719 52.4891 41.9344 52.8172 42.1313C53.1344 42.3281 53.7031 42.7875 54.075 43.1484C54.4578 43.5312 54.9062 44.1437 55.1359 44.5703C55.3547 44.9859 55.6391 45.675 55.7703 46.0906C55.9234 46.5938 56 47.1516 56 47.6766C56 48.1359 55.9234 48.825 55.825 49.2078C55.7375 49.6016 55.475 50.2906 55.2563 50.7391C54.9719 51.3187 54.6219 51.8 54.0859 52.3359C53.6594 52.7625 53.0469 53.2656 52.7188 53.4516C52.3906 53.6375 51.7234 53.9219 50.3672 54.3594H5.63281L4.75781 54.075C4.27656 53.9219 3.60938 53.6375 3.28125 53.4516C2.95312 53.2656 2.32969 52.7625 1.91406 52.3359C1.37812 51.7891 1.02813 51.3187 0.74375 50.7391C0.525 50.2906 0.2625 49.6234 0.175 49.2625C0.0765625 48.9016 0 48.2453 0 47.7859C0 47.3375 0.0765625 46.6484 0.175 46.2547C0.273438 45.8719 0.557813 45.15 0.798438 44.6797C1.09375 44.1109 1.4875 43.575 1.925 43.1484C2.28594 42.7766 2.89844 42.2953 3.29219 42.0766C3.675 41.8469 4.2 41.6063 4.92188 41.3875V31.2703ZM8.20312 41.1141H14.875L14.8203 34.6063L8.20312 34.5516V41.1141ZM18.1562 41.1141H24.7188V34.5516H18.1562V41.1141ZM4.42969 45.2922C4.18906 45.5 3.85 45.9594 3.66406 46.3094C3.37969 46.8781 3.33594 47.075 3.34687 47.7859C3.35781 48.2891 3.43438 48.7703 3.54375 49.0219C3.64219 49.2406 3.92656 49.6562 4.18906 49.9297C4.44062 50.2141 4.9 50.5641 5.19531 50.7172C5.64375 50.9469 5.90625 51.0016 6.5625 51.0016C7.22969 51.0125 7.49219 50.9578 7.98438 50.7172C8.32344 50.5641 8.76094 50.2469 8.96875 50.0063C9.16562 49.7766 9.46094 49.3172 9.61406 48.9891C9.84375 48.475 9.87656 48.2781 9.82188 47.5672C9.78906 47.0312 9.69062 46.5828 9.5375 46.2875C9.40625 46.025 9.13281 45.6422 8.91406 45.4344C8.70625 45.2266 8.32344 44.9422 8.07188 44.8109C7.73281 44.6469 7.36094 44.5703 6.72656 44.5375C6.05937 44.5156 5.74219 44.5484 5.35938 44.7125C5.09688 44.8219 4.67031 45.0844 4.42969 45.2922ZM12.7641 45.4891C13.0594 46.1562 13.0703 46.2875 13.0703 47.7313C13.0703 49.1203 13.0375 49.3281 12.7859 49.9734C12.6328 50.3672 12.4688 50.7719 12.4359 50.8813C12.3703 51.0563 12.6438 51.0672 17.2812 51.0672C19.9937 51.0672 22.2031 51.0344 22.2141 50.9906C22.2141 50.9359 22.0938 50.6297 21.9516 50.3016C21.7984 49.9734 21.6234 49.3828 21.5469 48.9891C21.4594 48.5625 21.4266 47.8844 21.4703 47.2938C21.5031 46.6266 21.6125 46.0797 21.7984 45.5984C21.9406 45.2047 22.0938 44.8 22.1375 44.7016C22.2031 44.5156 21.9297 44.5047 17.2703 44.5047C13.3547 44.5047 12.3375 44.5375 12.3922 44.6469C12.425 44.7125 12.6 45.0953 12.7641 45.4891ZM25.6922 45.4781C25.2219 45.9484 25.0359 46.2328 24.9047 46.6922C24.7953 47.0203 24.7188 47.5234 24.7188 47.8188C24.7188 48.1031 24.8172 48.5953 24.9375 48.9125C25.0578 49.2297 25.3531 49.7 25.6156 49.9734C25.8781 50.2469 26.3375 50.5969 26.6328 50.7391C27.0703 50.9469 27.3547 51.0125 28 51.0125C28.6453 51.0125 28.9406 50.9469 29.3672 50.7391C29.6734 50.5969 30.1328 50.2469 30.3844 49.9734C30.6578 49.7 30.9531 49.2297 31.0734 48.9125C31.1938 48.5953 31.2812 48.1031 31.2812 47.8188C31.2812 47.5234 31.2047 47.0203 31.1062 46.6922C30.9641 46.2328 30.7891 45.9484 30.3078 45.4781C29.8922 45.0625 29.5312 44.8109 29.1484 44.6906C28.8531 44.5812 28.3062 44.5047 27.9453 44.5156C27.5844 44.5156 27.0703 44.6031 26.7969 44.6906C26.4906 44.8 26.075 45.0953 25.6922 45.4781ZM34.2234 45.5984C34.4641 46.2328 34.4969 46.4734 34.4969 47.7313C34.5078 49.0328 34.475 49.2188 34.2016 49.9188C34.0375 50.3453 33.8734 50.7719 33.8516 50.8813C33.8078 51.0563 34.0922 51.0672 38.7188 51.0672C43.3672 51.0672 43.6406 51.0563 43.575 50.8813C43.5312 50.7719 43.3781 50.3672 43.225 49.9734C42.9625 49.3281 42.9406 49.1203 42.9406 47.7313C42.9297 46.2875 42.9516 46.1562 43.2359 45.4891C43.4109 45.0953 43.5641 44.7125 43.5969 44.6469C43.6297 44.5375 42.6125 44.5047 38.7078 44.5047C34.0375 44.5047 33.775 44.5156 33.8516 44.7016C33.9062 44.8 34.0703 45.2047 34.2234 45.5984ZM47.8297 44.8547C47.6656 44.9531 47.3375 45.2047 47.1187 45.4234C46.8891 45.6422 46.6047 46.025 46.4734 46.2875C46.3094 46.5828 46.2109 47.0312 46.1781 47.5672C46.1344 48.2781 46.1672 48.475 46.3969 48.9891C46.55 49.3172 46.8344 49.7766 47.0422 50.0063C47.25 50.2469 47.6875 50.5641 48.0156 50.7172C48.5078 50.9578 48.7703 51.0125 49.4375 51.0016C50.1047 51.0016 50.3672 50.9469 50.8047 50.7172C51.1109 50.5641 51.5156 50.2687 51.7234 50.0719C51.9203 49.8641 52.2156 49.4594 52.3687 49.1531C52.5984 48.7156 52.6531 48.4422 52.6641 47.7859C52.6641 47.1187 52.6203 46.8563 52.3797 46.3641C52.2047 46.0141 51.8656 45.5656 51.5594 45.2922C51.2641 45.0406 50.8047 44.7562 50.5312 44.6688C50.2687 44.5703 49.7438 44.5047 49.3828 44.5156C49.0219 44.5156 48.5953 44.5594 48.4312 44.6031C48.2781 44.6578 48.0047 44.7672 47.8297 44.8547Z" fill="#B78AAC"/>
</svg>
