<svg width="57" height="56" viewBox="0 0 57 56" fill="none" xmlns="http://www.w3.org/2000/svg">
<path fill-rule="evenodd" clip-rule="evenodd" d="M43.1094 0C50.1859 0 53.8281 0.0328125 53.8281 0.109375C53.8281 0.164062 54.5281 7.39375 56.9453 32.1016L57 56H1.00001V31.6094L29.2625 31.5547L30.7719 15.9141C31.6031 7.30625 32.3031 0.207813 32.3359 0.13125C32.3688 0.0328125 34.6328 0 43.1094 0ZM35.125 5.08594C35.0594 5.92812 34.9828 6.70469 34.95 6.81406C34.9063 6.98906 35.3547 7 43.0547 7H51.2031C51.1047 6.27812 51.0172 5.45781 50.9516 4.70312L50.8203 3.33594C36.9406 3.28125 35.3328 3.30313 35.2891 3.4125C35.2672 3.48906 35.1906 4.24375 35.125 5.08594ZM33.5938 20.8906C33.0578 26.5781 32.6094 31.3141 32.6094 31.4234C32.6094 31.5984 32.8938 31.6094 36.9844 31.6094H41.3594V27.9453C40.4625 27.6281 40.025 27.3328 39.5875 26.9172C39.1063 26.4797 38.7781 26.0531 38.5266 25.5281C38.3078 25.0906 38.0891 24.4125 38.0016 23.8984C37.9141 23.3844 37.8703 22.75 37.9141 22.3672C37.9469 22.0063 38.0563 21.4375 38.1438 21.1094C38.2422 20.7812 38.5375 20.0922 38.8 19.5781C39.0625 19.0641 39.5766 18.2547 39.9375 17.7734C40.2875 17.2922 41.1078 16.3734 41.7531 15.7281C42.3984 15.0719 42.9781 14.5469 43.0438 14.5469C43.1094 14.5469 43.6891 15.0719 44.3453 15.7172C44.9906 16.3734 45.8109 17.2922 46.1719 17.7734C46.5328 18.2547 47.025 19.0203 47.2547 19.4688C47.4953 19.9172 47.7906 20.6063 47.9328 21C48.1078 21.5141 48.1734 21.9734 48.1734 22.6953C48.1844 23.2422 48.1188 23.9531 48.0422 24.2812C47.9656 24.6094 47.7469 25.2 47.55 25.5828C47.324 26.0495 46.9849 26.4943 46.5328 26.9172C46.0844 27.3328 45.6469 27.6281 45.2969 27.7594L44.75 27.9453V31.6094C53.2156 31.6094 53.5 31.5984 53.5 31.4234C53.5 31.3141 53.0516 26.5781 52.5156 20.8906C51.9688 15.2031 51.4984 10.4891 51.4766 10.4234C51.4328 10.3141 49.65 10.2812 43.0547 10.2812C36.4484 10.2812 34.6766 10.3141 34.6328 10.4234C34.6109 10.4891 34.1406 15.2031 33.5938 20.8906ZM42.5297 19.8078C42.2344 20.1906 41.8188 20.8687 41.6 21.3172C41.25 22.0281 41.1953 22.2359 41.2063 22.8484C41.2172 23.3406 41.2938 23.7234 41.4578 24.0406C41.5891 24.3141 41.8297 24.5766 42.0484 24.6859C42.2672 24.8062 42.65 24.8719 43.0547 24.8719C43.4594 24.8719 43.8422 24.8062 44.0719 24.6859C44.2688 24.5766 44.5203 24.3141 44.6406 24.0625C44.7828 23.7781 44.8703 23.3734 44.8813 22.8922C44.8922 22.3016 44.8375 22.0172 44.6297 21.5469C44.4766 21.2188 44.1703 20.6719 43.9516 20.3438C43.7328 20.0156 43.4375 19.6 43.3063 19.425L43.0547 19.1078L42.5297 19.8078ZM4.28126 52.7188H22.1094V38.6094H35.8906V52.7188H53.7188V34.8906H4.28126V52.7188ZM25.3906 52.7188H32.6094V42H25.3906V52.7188ZM0.967194 15.3125H4.22657L4.36876 16.2969C4.43438 16.8438 4.62032 17.6422 4.77344 18.0797C4.92657 18.5172 5.26563 19.2172 5.51719 19.6328C5.76876 20.0594 6.29376 20.7266 6.68751 21.1203C7.08126 21.525 7.71563 22.05 8.10938 22.3016C8.50313 22.5531 9.17032 22.9031 9.58594 23.0781C10.0125 23.2531 10.8 23.4719 11.3359 23.5703C11.8828 23.6578 12.5719 23.7344 12.8672 23.7344C13.1734 23.7344 13.7859 23.6688 14.2344 23.5813C14.6828 23.5047 15.4047 23.2969 15.8203 23.1328C16.2469 22.9688 16.9359 22.6078 18.1172 21.8203L15 21.7656V18.4844H23.6406V27.125H20.3594V25.7578C20.3594 24.9266 20.3156 24.3906 20.25 24.3906C20.1953 24.3906 19.9109 24.5656 19.6266 24.7844C19.3313 25.0031 18.8063 25.3531 18.4453 25.55C18.0844 25.7469 17.4719 26.0422 17.0781 26.1953C16.6844 26.3484 15.9734 26.5672 15.4922 26.6984C15.0109 26.8188 14.0813 26.95 13.4141 26.9828C12.5172 27.0375 11.9266 27.0047 11.0625 26.8625C10.4281 26.7531 9.54219 26.5453 9.09376 26.3922C8.64532 26.2391 7.90157 25.9328 7.45313 25.7031C7.00469 25.4734 6.29376 25.0469 5.86719 24.7516C5.45157 24.4563 4.74063 23.8438 4.30313 23.3953C3.86563 22.9578 3.29688 22.2687 3.03438 21.875C2.77188 21.4813 2.34532 20.7484 2.10469 20.2344C1.85313 19.7203 1.53594 18.8344 1.39376 18.2656C1.25157 17.6969 1.08751 16.8 1.04376 16.275L0.967194 15.3125ZM1.87501 2.51562H5.15626V3.88281C5.15626 4.71406 5.20001 5.25 5.26563 5.25C5.33126 5.25 5.63751 5.05312 5.95469 4.8125C6.27188 4.57188 6.97188 4.15625 7.50782 3.88281C8.05469 3.62031 8.82032 3.30313 9.20313 3.18281C9.59688 3.0625 10.2094 2.89844 10.5703 2.82187C10.9641 2.73438 11.8828 2.69062 12.8125 2.69062C14.125 2.70156 14.5844 2.75625 15.4375 2.975C16.0172 3.12813 16.8484 3.40156 17.2969 3.5875C17.7563 3.77344 18.5438 4.18906 19.0469 4.49531C19.6594 4.86719 20.3594 5.44688 21.0813 6.16875C21.8031 6.89062 22.3828 7.59062 22.7547 8.20312C23.0609 8.70625 23.4766 9.52656 23.6625 10.0078C23.8375 10.4891 24.0891 11.2766 24.1984 11.7578C24.3078 12.2391 24.4172 13.0266 24.4609 14.3828L21.2344 14.4375L21.1688 13.6937C21.1359 13.2891 21.0047 12.5891 20.8953 12.1406C20.775 11.6812 20.4906 10.9484 20.25 10.5C20.0094 10.0406 19.5828 9.38437 19.2875 9.02344C19.0031 8.6625 18.4234 8.10469 18.0078 7.7875C17.5922 7.47031 16.9031 7.04375 16.4766 6.83594C16.0609 6.62813 15.3172 6.35469 14.8359 6.2125C14.1578 6.02656 13.6875 5.97187 12.7031 5.97187C12.0141 5.98281 11.2047 6.0375 10.8984 6.11406C10.6031 6.19063 10.0344 6.37656 9.64063 6.52969C9.25782 6.68281 8.59063 7.03281 7.39844 7.82031L10.5156 7.875V11.1562H1.87501V2.51562ZM11.3906 38.6094V42L8.16407 41.9453L8.14219 40.4141C8.13126 39.5719 8.14219 38.8281 8.17501 38.7516C8.20782 38.6422 8.60157 38.6094 11.3906 38.6094ZM15.0109 38.5984L18.2266 38.6641V41.9453L15 42L15.0109 38.5984ZM43.175 38.6531V41.9344H39.8938L39.8719 40.4141C39.8609 39.5719 39.8719 38.8172 39.8938 38.7406C39.9375 38.6313 40.2984 38.5984 43.175 38.6531ZM46.7297 38.5984L49.9563 38.6531V41.9344L46.7297 41.9891V38.5984ZM8.10938 45.8281H11.3906V49.1094H8.10938V45.8281ZM15 45.8281H18.2703L18.2266 49.0547L15 49.1094V45.8281ZM39.8281 45.8281H43.2078L43.1641 49.0547H39.8828L39.8281 45.8281ZM46.7297 45.8281H50.0109V49.1094H46.7297V45.8281Z" fill="#B78AAC"/>
</svg>
