<svg width="360" height="360" viewBox="0 0 360 360" fill="none" xmlns="http://www.w3.org/2000/svg">
<path d="M167.718 5.70586L161.703 0L17.126 93.8433L26.365 103.082C29.939 106.656 114.602 190.547 181.478 190.547H184.671L342.874 85.0781H308.04C249.785 85.0781 168.531 6.48914 167.718 5.70586Z" fill="#450435" fill-opacity="0.1"/>
<path d="M268.375 244.47L191.057 296.016H181.478C136.695 296.016 87.6656 265.461 53.6203 239.083L17.126 262.593L26.365 271.832C29.939 275.406 114.602 360 181.478 360H184.671L342.874 253.828H308.04C295.538 253.828 281.975 250.113 268.375 244.47Z" fill="#450435" fill-opacity="0.1"/>
<path d="M268.375 160.095L191.057 211.641H181.478C136.695 211.641 87.6656 181.086 53.6203 154.708L17.126 178.218L26.365 187.457C29.939 191.031 114.602 274.922 181.478 274.922H184.671L342.874 169.453H308.04C295.538 169.453 281.975 165.738 268.375 160.095Z" fill="#C21397" fill-opacity="0.1"/>
</svg>
