<svg width="320" height="320" viewBox="0 0 320 320" fill="none" xmlns="http://www.w3.org/2000/svg">
<path fill-rule="evenodd" clip-rule="evenodd" d="M159.375 0.0625C165.75 0.0625 172.5 0.3125 174.375 0.625C176.25 1 180.875 1.8125 184.688 2.5625C188.5 3.25 195.375 5.125 200 6.625C204.625 8.1875 211.688 11 215.625 12.9375C219.563 14.9375 225.625 18.375 229.062 20.625C232.5 22.9375 237.438 26.5 240 28.5625C242.562 30.6875 247.375 35.125 250.625 38.5C253.938 41.9375 258.438 47.0625 260.625 50C262.812 52.9375 265.938 57.4375 267.563 60C269.125 62.5625 271.75 67.1875 273.25 70.3125C274.813 73.4375 277.125 78.75 278.438 82.1875C279.688 85.625 281.563 91.5 282.563 95.3125C283.5 99.125 284.75 105.25 285.312 109.062C285.875 112.875 286.5 118.75 286.688 122.188C286.875 125.625 286.688 131.812 286.313 135.938C285.875 140.062 284.875 146.938 284 151.25C283.125 155.562 281.25 162.562 279.813 166.875C278.438 171.188 275.5 178.188 273.375 182.5C271.25 186.812 267.625 193.125 265.312 196.562C263 200 259.438 204.75 253.813 211.562L253.75 282.812L243.625 282.375C237.188 282.125 231.438 281.5 228.125 280.688C225.188 280.062 221.313 278.875 216.25 276.875V320H207.625C201.375 320 197.5 319.688 193.125 318.75C189.875 318.062 185.375 316.875 183.125 316.125C180.875 315.438 176.5 313.562 173.438 312C170.375 310.5 166.062 308 160 303.75L156.062 306.5C153.937 308 149.625 310.5 146.562 312.062C143.5 313.562 139.125 315.438 136.875 316.125C134.625 316.875 130.125 318.062 126.875 318.75C122.5 319.688 118.625 320 103.75 320V276.875L100.438 278.188C98.6875 278.875 94.8125 280.062 91.875 280.688C88.5625 281.5 82.8125 282.125 66.25 282.812L66.1875 211.562L62.5625 207.188C60.5625 204.75 57 200 54.75 196.562C52.4375 193.125 49.0625 187.375 47.25 183.75C45.375 180.125 42.875 174.375 41.5625 170.938C40.3125 167.5 38.4375 161.625 37.4375 157.812C36.5 154 35.1875 147.688 34.5625 143.75C33.875 139.062 33.4375 133.125 33.5 126.562C33.5 120.25 33.875 113.875 34.5625 109.375C35.1875 105.437 36.5 99.125 37.4375 95.3125C38.4375 91.5 40.3125 85.625 41.5625 82.1875C42.875 78.75 45.1875 73.4375 46.75 70.3125C48.25 67.1875 50.9375 62.4375 52.6875 59.6875C54.375 56.9375 57.375 52.5625 59.3125 50C61.25 47.4375 65.1875 42.8125 68.125 39.75C71.0625 36.6875 75.9375 32.0625 79.0625 29.4375C82.125 26.875 87.625 22.8125 91.25 20.5C94.875 18.125 101.062 14.625 105 12.6875C108.938 10.75 115.812 8 120.312 6.5C124.812 5.0625 131.688 3.25 135.625 2.5C139.562 1.8125 143.938 0.9375 145.312 0.6875C146.688 0.375 153 0.125 159.375 0.0625ZM135.312 21.625C132.938 22.1875 128.125 23.625 124.688 24.8125C121.25 26 115.625 28.375 112.188 30.125C108.75 31.8125 103.688 34.6875 100.938 36.5C98.1875 38.3125 93.3125 41.9375 90.125 44.5625C87 47.1875 82.125 52 79.375 55.125C76.5625 58.3125 72.8125 63.1875 70.9375 65.9375C69.0625 68.6875 66 73.875 64.125 77.5C62.25 81.125 59.625 87.3125 58.25 91.25C56.875 95.1875 55.125 101.5 54.3125 105.312C53 111.438 52.8125 113.812 52.8125 126.562C52.8125 139.312 53 141.688 54.3125 147.812C55.125 151.625 56.875 157.938 58.25 161.875C59.625 165.812 62.25 172 64.125 175.625C66 179.25 69.0625 184.438 70.9375 187.188C72.8125 189.938 76.5625 194.812 79.375 198C82.125 201.125 87 205.938 90.125 208.562C93.3125 211.188 98.1875 214.812 100.938 216.625C103.688 218.375 108.75 221.312 112.188 223C115.625 224.75 121.812 227.312 125.938 228.688C130.062 230.062 135.562 231.562 138.125 232.125C140.688 232.625 145.875 233.375 149.688 233.812C153.812 234.25 159.812 234.375 164.688 234.125C169.125 233.938 175.375 233.312 178.438 232.75C181.5 232.188 186.438 231.062 189.375 230.25C192.312 229.375 197.625 227.5 201.25 226.062C204.875 224.562 210.5 221.812 213.75 219.875C217 218 222.063 214.625 225 212.438C227.938 210.25 232.875 205.938 236 202.812C239.063 199.75 243.313 194.938 245.438 192.188C247.5 189.438 250.438 185.25 251.875 182.812C253.375 180.375 255.938 175.625 257.563 172.188C259.188 168.75 261.375 163.125 262.5 159.688C263.563 156.25 265.062 150.75 265.812 147.5C266.938 142.375 267.125 139.562 267.125 126.562C267.125 113.312 266.938 110.812 265.75 105.312C264.938 101.875 263.188 95.6875 261.812 91.5625C260.438 87.4375 257.938 81.375 256.25 78.125C254.562 74.875 251.562 69.75 249.562 66.75C247.562 63.75 243.812 58.875 241.25 55.875C238.688 52.8125 234.188 48.3125 231.25 45.75C228.313 43.1875 223.125 39.25 219.688 36.9375C216.25 34.625 210.75 31.4375 207.5 29.875C204.25 28.25 198.188 25.8125 194.062 24.4375C189.938 23.0625 184.438 21.5 181.875 21C179.312 20.5 174.625 19.75 171.562 19.375C168.5 19.0625 162.875 18.8125 159.062 18.8125C155.25 18.875 149.375 19.25 145.938 19.75C142.5 20.1875 137.688 21.0625 135.312 21.625ZM85 263.125C89.125 262.125 91.6875 261.375 93.4375 260.812C95.125 260.25 98.1875 259 100.125 258.062L103.75 256.25V240C99.125 237.438 95.6875 235.375 93.125 233.812C90.5625 232.188 87.75 230.375 86.875 229.75L85.25 228.625L85 263.125ZM230.625 231.437C228.375 232.937 224.25 235.437 221.438 237.062L216.25 240V256.25C223.25 259.625 227.438 261.125 230 261.75L234.688 262.938C234.938 249.25 234.938 241.562 234.875 237L234.688 228.75L230.625 231.437ZM122.5 300.562C126.625 299.562 129.25 298.812 130.938 298.25C132.688 297.75 135.75 296.438 137.812 295.375C139.875 294.375 143.25 292.375 145.312 291C147.375 289.562 151.5 286.062 154.562 283.125L160 277.75C168.75 286.25 173.312 290.062 175.812 291.688C178.25 293.312 182.438 295.562 185 296.625C187.562 297.75 191.438 299.062 193.625 299.625L197.5 300.562C197.5 249 197.438 247.5 196.438 247.812C195.812 248 193.188 248.688 190.625 249.312C188.062 250 183.125 251 179.688 251.625C175.188 252.375 169.812 252.687 160.312 252.687C152.438 252.687 145.188 252.375 142.188 251.938C139.438 251.5 134.25 250.375 130.625 249.5C127 248.625 123.75 247.812 123.375 247.625C122.875 247.375 122.688 254.937 122.625 273.938L122.5 300.562ZM159.937 38.0625C160.125 38.0625 166.5 49.3125 174.062 63.125C181.625 76.875 188.188 88.25 188.75 88.375C189.25 88.5 201.875 90.9375 216.875 93.75C231.812 96.5 244.125 98.9375 244.188 99.0625C244.25 99.1875 235.563 108.625 224.813 120C214.063 131.375 205.25 141.062 205.125 141.438C205.063 141.812 206.625 154.625 208.625 169.938C210.625 185.25 212.063 197.812 211.875 197.938C211.688 198.062 199.938 192.625 160 173.688L134.375 185.875C120.25 192.562 108.5 198 108.188 197.938C107.938 197.812 109.313 185.25 111.313 169.938C113.313 154.625 114.875 141.812 114.812 141.438C114.75 141.062 105.875 131.375 95.125 120C84.375 108.625 75.6875 99.1875 75.75 99.0625C75.8125 98.9375 88.125 96.5625 103.125 93.75C118.062 90.9375 130.688 88.5 131.25 88.375C131.75 88.25 138.312 76.875 145.875 63.125C153.437 49.3125 159.75 38.0625 159.937 38.0625ZM143.75 104.937C143.188 105.187 136.125 106.625 127.938 108.125C119.812 109.625 113.125 111.125 113.125 111.375C113.125 111.625 118 116.937 123.938 123.25L134.75 134.625C131.562 159.312 130.687 166.562 130.75 166.625C130.875 166.688 137.437 163.688 145.438 159.938L160 153.062C182.5 163.688 189.125 166.688 189.188 166.625C189.25 166.562 188.375 159.312 187.25 150.562L185.187 134.625C202 116.937 206.875 111.625 206.875 111.375C206.875 111.125 200.188 109.625 192 108.125C183.812 106.625 176.75 105.187 176.25 104.937C175.688 104.687 172 98.25 168 90.625C164 83.0625 160.437 76.8125 160.187 76.8125C159.875 76.875 156.312 83.0625 152.188 90.6875C148.062 98.25 144.25 104.687 143.75 104.937Z" fill="#C21397" fill-opacity="0.07"/>
</svg>
