<svg width="320" height="320" viewBox="0 0 320 320" fill="none" xmlns="http://www.w3.org/2000/svg">
<path fill-rule="evenodd" clip-rule="evenodd" d="M103.125 10.0625C108.812 10.0625 115.125 10.3125 117.188 10.6875C119.25 11.0625 124.188 12.1875 128.125 13.125C132.062 14.0625 138.25 16 141.875 17.375C145.5 18.8125 151 21.4375 154.188 23.25C157.375 25.0625 162.25 28.25 165.062 30.3125C167.938 32.375 173.062 36.875 176.5 40.375C180 43.8125 184.5 48.9375 186.562 51.8125C188.625 54.625 191.812 59.5 193.625 62.6875C195.438 65.875 198 71.25 199.375 74.6875C200.688 78.125 202.375 83.0625 203.062 85.625C203.812 88.1875 204.812 92.6875 205.312 95.625C205.812 98.5625 206.438 104 206.625 107.812C206.812 112.125 207.375 115.562 208 117.125C208.688 118.687 209.938 120.062 214.062 122.5H254.25C281.312 122.5 295.438 122.75 297.688 123.188C299.438 123.562 302.5 124.625 304.375 125.5C306.375 126.438 309.375 128.687 311.562 130.875C313.688 133 315.875 135.812 316.562 137.188C317.188 138.562 318.25 141.062 318.875 142.812C319.938 145.812 320 150 320 310H0V208.875C0 143.438 0.25 105.812 0.625 102.188C1 99.125 1.75 94.4375 2.25 91.875C2.75 89.3125 4.1875 84.25 5.375 80.625C6.625 77 8.8125 71.5625 10.3125 68.4375C11.75 65.3125 15.0625 59.6875 17.5625 55.9375C20.1875 52 24.875 46.25 28.4375 42.5625C31.875 39 36.9375 34.3125 39.6875 32.1875C42.4375 30.0625 46.5 27.1875 48.75 25.75C51 24.375 55.75 21.8125 59.375 20.125C63 18.375 68.5 16.1875 71.5625 15.1875C74.6875 14.125 79.75 12.8125 82.8125 12.25C85.875 11.625 89.4375 10.9375 90.625 10.625C91.8125 10.375 97.4375 10.125 103.125 10.0625ZM84.6875 30.9375C82.3125 31.5 78.1875 32.6875 75.625 33.5625C73.0625 34.4375 68.6875 36.3125 65.9375 37.6875C63.1875 39.0625 59.125 41.375 56.875 42.875C54.625 44.3125 50.6875 47.3125 48.125 49.5C45.5625 51.6875 41.75 55.4375 39.6875 57.8125C37.625 60.25 34.75 63.875 33.3125 65.9375C31.9375 68 29.5 72.1875 27.9375 75.3125C26.375 78.4375 24.25 83.5 23.1875 86.5625C22.1875 89.625 20.875 94.3125 20.25 96.875C19.3125 101 19.125 106.188 18.9375 140.188L18.75 178.75H301.25C301.25 150 301.125 148.562 300 146.25C299.167 144.583 297.917 143.333 296.25 142.5C293.812 141.312 292.5 141.25 253.75 141.25C226.25 141.25 212.75 141 210.438 140.562C208.688 140.125 205.625 139.125 203.75 138.25C201.75 137.312 198.688 135 196.562 132.812C194.375 130.687 192.062 127.562 191.125 125.625C190.25 123.75 189.25 120.625 188.875 118.75C188.5 116.875 188.062 112.312 187.875 108.562C187.688 104.875 187.062 99.6875 186.562 97.0625C186 94.375 184.812 89.9375 183.938 87.1875C183.062 84.4375 181.375 80.0625 180.188 77.5C179 74.9375 176.187 70 173.938 66.5625C171.187 62.3125 167.625 58.125 162.875 53.4375C159.062 49.625 153.812 45.125 151.25 43.4375C148.688 41.75 144.188 39.125 141.25 37.625C138.312 36.1875 133.375 34.125 130.312 33.125C127.25 32.0625 122.562 30.8125 120 30.3125C117.438 29.8125 111.25 29.25 106.25 29.0625C101.25 28.9375 95.375 29.0625 93.125 29.375C90.875 29.6875 87.0625 30.4375 84.6875 30.9375ZM18.75 291.25H301.25V197.5H281.875V272.5H38.125V197.5H18.75V291.25ZM56.875 253.75H263.125V197.5H244.375V235H225.625V197.5H206.875V235H188.125V197.5H169.375V235H150.625V197.5H131.875V235H113.125V197.5H94.375V235H75.625V197.5H56.875V253.75ZM94.375 47.5H101.25C105.125 47.5 110.25 47.9375 113 48.5C115.625 49.0625 119.375 50.125 121.25 50.875C123.125 51.625 126.688 53.5625 129.062 55.125C131.438 56.6875 134.938 59.5 136.812 61.3125C138.625 63.1875 141.375 66.5 142.812 68.75C144.312 71 146.188 74.5 147.062 76.5625C147.938 78.625 149.062 82.5 149.625 85.125C150.375 88.875 150.625 93.8125 150.625 122.5H131.875V106.687C131.875 95.6875 131.625 90 131.062 87.8125C130.562 86.0625 129.562 83.3125 128.688 81.625C127.875 79.9375 126.062 77.25 124.625 75.6875C123.25 74.125 120.688 71.9375 119 70.875C117.312 69.75 115.312 68.6875 113.125 68.125V101.25C113.125 123.125 112.875 135.5 112.438 137.625C112.062 139.438 110.688 142.875 109.438 145.25C108.125 147.812 105.937 150.75 104 152.438C102.312 154 99.25 156.062 97.3125 157C95.375 158 91.875 159.062 89.5 159.5C86.25 160.062 84.3125 160.062 80.75 159.5C78.3125 159.062 74.625 158 72.625 157.062C70.5625 156.062 67.5 153.812 65.3125 151.562C63.0625 149.375 60.8125 146.312 59.8125 144.188C58.875 142.25 57.8125 138.562 57.375 136.062C56.8125 132.562 56.8125 130.625 57.375 127.312C57.8125 125 58.875 121.5 59.8125 119.5C60.8125 117.375 63 114.437 65.25 112.188C67.4375 110 70.5625 107.688 72.5 106.75C74.375 105.875 77.75 104.812 80 104.375C82.25 103.938 85.5 103.75 87.1875 103.938C88.9375 104.125 91.25 104.5 94.375 105.312V47.5ZM76.75 127.625C76.1875 128.75 75.6875 130.625 75.6875 131.687C75.6875 132.812 76.1875 134.812 76.8125 136.062C77.5 137.437 79.0625 139 80.4375 139.812C81.75 140.562 83.75 141.188 84.875 141.25C86 141.25 88 140.688 89.375 140C91.0417 139.167 92.2917 137.917 93.125 136.25C93.8125 134.875 94.375 132.938 94.375 131.875C94.375 130.812 93.8125 128.875 93.125 127.5C92.2917 125.833 91.0417 124.583 89.375 123.75C88 123.062 86 122.5 84.875 122.5C83.75 122.5 81.6875 123.188 80.3125 124.062C78.9375 124.875 77.375 126.5 76.75 127.625Z" fill="white" fill-opacity="0.07"/>
</svg>
