<svg width="88" height="88" viewBox="0 0 88 88" fill="none" xmlns="http://www.w3.org/2000/svg">
<g clip-path="url(#clip0_484_146)">
<path fill-rule="evenodd" clip-rule="evenodd" d="M33.6875 0H54.3812L54.3984 6.54844L56.375 7.20156C57.4578 7.5625 58.7812 8.06094 59.2969 8.28438C59.8125 8.525 60.9125 9.04062 63.25 10.2266L67.8906 5.58594L82.4141 20.1094L77.7734 24.7328L78.925 27.1047C79.5609 28.4109 80.3859 30.4047 81.4516 33.6016L88 33.6875V54.3125L81.4516 54.3984L80.7641 56.4609C80.3859 57.5953 79.5609 59.5891 77.7734 63.2672L82.4141 67.8906L67.8906 82.4141L63.2672 77.7734L60.8953 78.925C59.5891 79.5609 57.5953 80.3859 54.3984 81.4516L54.3125 88H33.6875L33.6016 81.4516L31.5391 80.7641C30.4047 80.3859 28.4109 79.5609 24.7328 77.7734L20.1094 82.4141L5.58594 67.8906L10.2266 63.2672L9.075 60.8953C8.43906 59.5891 7.61406 57.5781 6.53125 54.3125H0V33.6875H6.53125L7.23594 31.5734C7.61406 30.4219 8.43906 28.4109 10.2266 24.7328L5.58594 20.1094L20.1094 5.58594L24.7328 10.2266L27.1047 9.075C28.4109 8.43906 30.4047 7.61406 33.6016 6.54844L33.6875 0ZM38.8438 7.90625C38.8438 10.6047 38.8266 10.6562 38.4484 10.725C38.2422 10.7766 37.3312 10.9828 36.4375 11.1891C35.5266 11.3953 34.0312 11.825 33.0859 12.1516C32.1406 12.4781 30.5078 13.1484 29.4766 13.6297C28.4281 14.1281 26.8297 15.0219 25.9016 15.6063C24.9734 16.1906 24.1656 16.6719 24.0969 16.6719C24.0281 16.6719 23.1172 15.8125 22.0859 14.7812L20.1953 12.8906L12.8906 20.1953C15.8125 23.1172 16.6547 24.0281 16.6719 24.0969C16.6719 24.1656 16.1906 24.9906 15.6063 25.9016C15.0219 26.8297 14.0938 28.5141 13.5609 29.6484C13.0109 30.7828 12.3062 32.5531 11.9797 33.6016C11.6359 34.6328 11.2063 36.2484 11.0172 37.1594L10.6562 38.8438H5.15625V49.1562H10.6562C11.2063 51.7516 11.6359 53.35 11.9797 54.3984C12.3062 55.4297 13.0109 57.2172 13.5609 58.3516C14.0938 59.4859 15.0219 61.1703 15.6063 62.0813C16.1906 63.0094 16.6719 63.8172 16.6719 63.8859C16.6719 63.9547 15.8125 64.8656 14.7812 65.9141L12.8734 67.8047L20.1953 75.1094C23.1172 72.1703 24.0281 71.3281 24.0969 71.3281C24.1656 71.3281 24.9734 71.7922 25.9016 72.3766C26.8297 72.9781 28.4281 73.8547 29.4766 74.3531C30.5078 74.8516 32.1406 75.5219 33.0859 75.8484C34.0312 76.175 35.5266 76.6047 36.4375 76.8109C37.3312 77 38.2422 77.2063 38.4484 77.2578C38.8266 77.3438 38.8438 77.3781 38.8438 80.0938V82.8438H49.1562V77.3438C51.7516 76.7766 53.35 76.3469 54.3984 76.0203C55.4297 75.6766 57.2172 74.9719 58.3516 74.4391C59.4859 73.8891 61.1531 72.9781 62.0813 72.3938C63.0094 71.7922 63.8172 71.3281 63.8859 71.3281C63.9547 71.3281 64.8656 72.1703 65.9141 73.2188L67.8047 75.1094L75.1094 67.8047C72.1703 64.8656 71.3281 63.9547 71.3281 63.8859C71.3281 63.8172 71.7922 63.0094 72.3766 62.0813C72.9609 61.1703 73.8547 59.5547 74.3531 58.5234C74.8516 57.475 75.5219 55.8594 75.8484 54.9141C76.175 53.9688 76.6391 52.2844 76.8797 51.1672L77.3438 49.1562H82.8438V38.8438H77.3438C76.6391 35.7156 76.175 34.0312 75.8484 33.0859C75.5219 32.1406 74.8516 30.5078 74.3531 29.4766C73.8547 28.4281 72.9609 26.8297 72.3766 25.9016C71.7922 24.9906 71.3281 24.1656 71.3281 24.0969C71.3109 24.0281 72.1703 23.1172 73.2188 22.0859L75.1094 20.1953L67.8047 12.8906C64.8656 15.8125 63.9547 16.6719 63.8859 16.6719C63.8172 16.6719 63.0094 16.1906 62.0813 15.6063C61.1531 15.0219 59.4859 14.0938 58.3516 13.5609C57.2172 13.0109 55.4297 12.3062 54.3984 11.9797C53.35 11.6531 51.7516 11.2063 50.8234 11.0172L49.1562 10.6562V5.15625H38.8438V7.90625ZM44.6875 15.5547C46.1484 15.5891 48.0391 15.7438 48.8984 15.8813C49.7406 16.0359 50.9781 16.3281 51.6484 16.5172C52.3016 16.7062 53.3844 17.0672 54.0547 17.3078C54.7078 17.5484 55.8766 18.0641 56.6328 18.425C57.3891 18.8031 58.6609 19.5422 59.4688 20.0578C60.2594 20.5734 61.3422 21.3469 61.875 21.7938C62.3906 22.2234 63.2672 22.9969 63.8172 23.5297C64.3672 24.0625 65.2953 25.0594 65.8969 25.7812C66.4984 26.4859 67.4094 27.7234 67.925 28.5312C68.4406 29.3219 69.1969 30.6453 69.6094 31.4531C70.0047 32.2438 70.6234 33.7906 70.9844 34.8906C71.3453 35.9734 71.7578 37.4344 71.9125 38.1562C72.05 38.8609 72.2391 40.1328 72.3422 40.9922C72.4453 41.8344 72.5141 43.1922 72.5141 44C72.5141 44.7906 72.4453 46.1484 72.3422 47.0078C72.2391 47.85 72.05 49.1219 71.8953 49.8438C71.7578 50.5484 71.3969 51.8547 71.1219 52.7656C70.8297 53.6594 70.2281 55.1719 69.7984 56.1172C69.3516 57.0625 68.5266 58.5234 67.9766 59.3828C67.4266 60.225 66.4984 61.4969 65.8969 62.2188C65.2953 62.9234 64.3328 63.9719 63.7312 64.5391C63.1297 65.1234 62.2531 65.8969 61.7891 66.2922C61.3078 66.6703 60.225 67.4266 59.3828 67.9766C58.5234 68.5266 57.0625 69.3516 56.1172 69.7812C55.1719 70.2281 53.7797 70.7953 53.0234 71.0359C52.2672 71.2766 50.9781 71.6375 50.1875 71.8266C49.3797 72.0156 47.9703 72.2391 47.0422 72.3422C46.1141 72.4453 44.7219 72.5312 43.9484 72.5312C43.175 72.5312 41.8344 72.4453 40.9922 72.3422C40.1328 72.2391 38.8609 72.05 38.1562 71.9125C37.4344 71.7578 35.9391 71.3281 34.8047 70.95C33.6703 70.5719 32.1234 69.9359 31.3672 69.5578C30.6109 69.1797 29.3219 68.4406 28.5312 67.925C27.7234 67.4094 26.4859 66.4984 25.7812 65.8969C25.0594 65.3125 24.0453 64.3672 23.5297 63.8172C22.9969 63.2672 22.2062 62.3906 21.7766 61.875C21.3469 61.3422 20.5734 60.2594 20.0578 59.4688C19.5422 58.6609 18.8031 57.3891 18.425 56.6328C18.0469 55.8766 17.4625 54.4844 17.1359 53.5391C16.8094 52.5938 16.3797 51.1156 16.1734 50.2734C15.9844 49.4141 15.7437 47.9703 15.6406 47.0422C15.5375 46.1313 15.4688 44.7562 15.4688 44C15.4688 43.2438 15.5375 41.8687 15.6406 40.9406C15.7437 40.0297 15.9844 38.5687 16.1734 37.7266C16.3797 36.8672 16.8094 35.4062 17.1359 34.4609C17.4625 33.5156 18.0469 32.1234 18.425 31.3672C18.8031 30.6109 19.5422 29.3219 20.0578 28.5312C20.5734 27.7234 21.3469 26.6406 21.7766 26.125C22.2062 25.5922 22.9969 24.7156 23.5297 24.1656C24.0453 23.6156 25.0594 22.6875 25.7812 22.0859C26.4859 21.5016 27.7234 20.5734 28.5312 20.0578C29.3219 19.5422 30.6453 18.7859 31.4531 18.3906C32.2438 17.9781 33.7906 17.3594 34.8906 16.9984C35.9734 16.6375 37.4859 16.225 38.2422 16.0703C38.9984 15.9156 40.15 15.7266 40.8203 15.6406C41.4734 15.5547 43.2094 15.5203 44.6875 15.5547ZM38.4141 21.3297C37.5547 21.5187 36.1625 21.9828 35.3203 22.3266C34.4609 22.6703 33.2578 23.2203 32.6562 23.5641C32.0375 23.9078 30.8687 24.6812 30.0781 25.2656C29.2703 25.8672 28.0672 26.8984 27.4141 27.5687C26.7437 28.2391 25.7984 29.3219 25.3 29.9922C24.8188 30.6453 24.0797 31.7625 23.6672 32.4844C23.2719 33.1891 22.6531 34.4609 22.3094 35.3203C21.9828 36.1625 21.5359 37.5203 21.3297 38.3281C21.1406 39.1188 20.9 40.4422 20.7969 41.25C20.6938 42.0406 20.625 43.3641 20.625 44.1719C20.625 44.9625 20.7281 46.4062 20.8828 47.3516C21.0203 48.2969 21.2953 49.6375 21.5016 50.3594C21.6906 51.0641 22.1547 52.3359 22.5328 53.1953C22.8938 54.0375 23.5641 55.3437 24.0109 56.0828C24.4578 56.8219 25.3687 58.1109 26.0391 58.9187C26.7094 59.7437 27.9984 61.0328 28.8922 61.7891C29.8031 62.5453 31.2297 63.5594 32.0719 64.075L33.6016 64.9688L33.6875 59.0391C32.8109 58.3859 31.8656 57.5094 31.0062 56.65C30.1641 55.7906 29.0984 54.5016 28.6516 53.7969C28.2047 53.075 27.5859 51.8891 27.2594 51.1328C26.95 50.3766 26.5031 49.0531 26.2797 48.2109C25.9187 46.8703 25.8672 46.2687 25.8844 43.9141C25.8844 41.5422 25.9531 40.9234 26.3312 39.5312C26.5719 38.6203 27.0188 37.3141 27.3453 36.6094C27.6719 35.8875 28.3078 34.7531 28.7547 34.0656C29.1844 33.3781 30.0781 32.2609 30.7313 31.5734C31.3844 30.8859 32.3297 30.0094 32.8453 29.6141C33.3438 29.2188 34.3922 28.5312 35.1484 28.1016L36.5234 27.3281H41.4219L41.4047 40.1328C43.2781 41.525 43.8969 41.9375 44 41.9375C44.0859 41.9375 44.7047 41.525 45.375 41.0266L46.5781 40.1328V27.3281C51.0812 27.3281 51.4766 27.3625 52.1125 27.6891C52.5078 27.8781 53.4703 28.4625 54.2266 28.9609C55.0344 29.4937 56.2203 30.525 57.1484 31.4875C57.9906 32.3812 59.0563 33.7391 59.5031 34.4781C59.95 35.2172 60.5859 36.4891 60.9125 37.2969C61.2391 38.0875 61.6344 39.3766 61.7891 40.1328C61.9437 40.8891 62.1156 42.3156 62.1672 43.3125C62.2245 44.5156 62.1615 45.6615 61.9781 46.75C61.8406 47.6437 61.4625 49.0703 61.1703 49.9297C60.8781 50.7719 60.3625 51.975 60.0359 52.5938C59.6922 53.1953 59.0562 54.2094 58.5922 54.8281C58.1453 55.4297 57.2 56.4781 56.5125 57.1484C55.825 57.8187 55.0344 58.5062 54.7766 58.6953L54.2953 59.0391L54.3984 64.9688C56.7531 63.5594 58.1453 62.5797 59.0047 61.8578C59.8812 61.1531 61.0844 59.95 61.7203 59.1937C62.3391 58.4375 63.1984 57.2859 63.6281 56.6328C64.0578 55.9625 64.6422 54.9656 64.9172 54.3984C65.2094 53.8312 65.725 52.5422 66.0687 51.5625C66.4125 50.5656 66.825 49.0875 66.9797 48.2969C67.1859 47.2828 67.2719 45.9594 67.2719 44C67.2719 42.0406 67.1859 40.7 66.9797 39.7031C66.825 38.8953 66.4125 37.4172 66.0687 36.4375C65.725 35.4406 65.2094 34.1688 64.9172 33.6016C64.6422 33.0344 64.0578 32.0203 63.6281 31.3672C63.1984 30.6969 62.3391 29.5453 61.7031 28.7891C61.0672 28.0328 59.9328 26.8984 59.1937 26.2625C58.4375 25.6438 57.2516 24.7672 56.5469 24.3031C55.825 23.8391 54.6391 23.1859 53.8828 22.8422C53.1266 22.4812 51.9234 22.0172 51.2188 21.7766C50.4969 21.5359 49.2594 21.2094 48.4688 21.0547C47.6609 20.9 45.925 20.7453 44.6016 20.7109C43.2781 20.6594 41.6797 20.7109 41.0781 20.7969C40.4594 20.8828 39.2562 21.1234 38.4141 21.3297ZM34.8047 34.8047C34.0484 35.5609 33.1719 36.6094 32.8625 37.125C32.5531 37.6406 32.1234 38.5344 31.8828 39.1016C31.6594 39.6688 31.3328 40.7859 31.1781 41.5938C30.9547 42.6766 30.9031 43.4672 30.9891 44.6875C31.0406 45.5812 31.2125 46.7844 31.3672 47.3516C31.5219 47.9188 31.9344 49.0016 32.3125 49.7578C32.6906 50.5141 33.3609 51.5969 33.8078 52.1641C34.2719 52.7313 35.1484 53.5906 35.75 54.0891C36.3688 54.5875 37.2969 55.2234 37.8469 55.5156L38.8438 56.0312L38.8266 66.7734C40.9922 67.1859 42.4703 67.2891 44.0859 67.2719C45.4953 67.2719 47.2141 67.1859 47.9016 67.0656L49.1562 66.8594V56.1172C51.2016 54.9141 52.3703 53.9859 53.1094 53.2812C53.8312 52.5594 54.7422 51.4422 55.1375 50.7891C55.5328 50.1188 56.0312 49.0359 56.2719 48.3828C56.4953 47.7125 56.7703 46.6641 56.8734 46.0625C56.9766 45.4437 57.0453 44.4641 57.0453 43.8625C57.0625 43.2781 56.925 42.1953 56.7875 41.4562C56.6328 40.7344 56.2891 39.5828 56.0141 38.9297C55.7391 38.2594 55.1375 37.1766 54.6734 36.5234C54.2266 35.8531 53.3844 34.8906 52.8344 34.3922L51.8203 33.4641L51.7172 42.7109L44 48.4688L36.2656 42.7109L36.1797 33.4297L34.8047 34.8047Z" fill="white"/>
</g>
<defs>
<clipPath id="clip0_484_146">
<rect width="88" height="88" fill="white"/>
</clipPath>
</defs>
</svg>
