<svg width="48" height="48" viewBox="0 0 48 48" fill="none" xmlns="http://www.w3.org/2000/svg">
<g clip-path="url(#clip0_276_76)">
<path fill-rule="evenodd" clip-rule="evenodd" d="M23.2969 0H45.1875V20.625H48V48H0V16.875H7.96875V2.8125H20.4844L23.2969 0ZM25.2188 11.625H16.4062V20.625H42.375V2.8125H25.2188V11.625ZM18.4219 8.8125H22.4062C22.4062 5.76562 22.3969 4.875 22.3875 4.875C22.3687 4.875 21.4781 5.76562 20.3906 6.84375L18.4219 8.8125ZM10.7812 17.4844C12.8906 18.9 13.5188 19.3125 13.5469 19.3125C13.575 19.3125 13.5938 17.1469 13.5938 14.5125V9.70312L17.6719 5.625H10.7812V17.4844ZM2.82188 39.5625H45.1969V23.4375H14.6344L9.00937 19.6875H2.82188V39.5625ZM2.82188 45.1875H45.1969V42.375H2.82188V45.1875Z" fill="white"/>
</g>
<defs>
<clipPath id="clip0_276_76">
<rect width="48" height="48" fill="white"/>
</clipPath>
</defs>
</svg>
