<svg width="48" height="48" viewBox="0 0 48 48" fill="none" xmlns="http://www.w3.org/2000/svg">
<g clip-path="url(#clip0_276_74)">
<path fill-rule="evenodd" clip-rule="evenodd" d="M10.9219 5.29683L10.9688 9.28121H48L47.9531 42.7031L26.625 42.7312C5.3625 42.75 5.29688 42.75 4.45312 42.5625C3.98438 42.45 3.3375 42.2343 3 42.0656C2.59687 41.8687 2.14687 41.5218 1.67812 41.0625C1.17188 40.5656 0.8625 40.1625 0.6375 39.7031C0.45 39.3375 0.234375 38.8031 0.15 38.5031C0.01875 38.025 0 36.6281 0 24C0 11.3718 0.01875 9.97496 0.15 9.48746C0.234375 9.19683 0.45 8.67183 0.61875 8.32496C0.796875 7.96871 1.19063 7.41558 1.51875 7.06871C1.84688 6.72183 2.38125 6.28121 2.71875 6.08433C3.09375 5.85933 3.66563 5.63433 4.21875 5.49371C5.08125 5.26871 5.2125 5.25933 10.9219 5.29683ZM3.75937 8.78433C3.53437 8.98121 3.23437 9.34683 3.10312 9.60933L2.85938 10.0781C2.80312 30.4968 2.82188 32.4656 2.925 32.3718C2.99063 32.3156 3.38438 32.1468 3.79688 32.0062C4.48125 31.7812 4.71563 31.7437 6.35625 31.6968L8.15625 31.6406V8.15621C5.40938 8.16558 4.80937 8.21246 4.54688 8.30621C4.34062 8.37183 3.98437 8.59683 3.75937 8.78433ZM10.9688 34.5C4.94062 34.5468 4.92188 34.5468 4.41562 34.7812C4.13437 34.9125 3.73125 35.2125 3.50625 35.4562C3.21563 35.775 3.04688 36.0656 2.94375 36.4406C2.85 36.7781 2.80312 37.1625 2.84062 37.4531C2.85938 37.7062 2.99063 38.1281 3.1125 38.3906C3.24375 38.6437 3.53437 39.0187 3.75937 39.2156C3.98437 39.4031 4.35938 39.6281 4.59375 39.7031C4.95937 39.825 7.5375 39.8437 25.1062 39.8437H45.1875V12.0937H10.9688V34.5ZM13.7812 14.9062H42.375V37.0312H13.7812V14.9062ZM16.5938 24.5625H26.625V17.7187H16.5938V24.5625ZM29.4375 24.5625H39.5625V17.7187H29.4375V24.5625ZM16.5938 34.2187H20.25V27.375H16.5938V34.2187ZM23.0625 34.2187H33.0938V27.375H23.0625V34.2187ZM35.9062 34.2187H39.5625V27.375H35.9062V34.2187Z" fill="white"/>
</g>
<defs>
<clipPath id="clip0_276_74">
<rect width="48" height="48" fill="white"/>
</clipPath>
</defs>
</svg>
