<svg width="56" height="56" viewBox="0 0 56 56" fill="none" xmlns="http://www.w3.org/2000/svg">
<path fill-rule="evenodd" clip-rule="evenodd" d="M18.0469 1.76099C19.0422 1.76099 20.1469 1.80474 20.5078 1.87036C20.8687 1.93599 21.7328 2.13286 22.4219 2.29692C23.1109 2.46099 24.1938 2.80005 24.8281 3.04067C25.4625 3.29224 26.425 3.75161 26.9828 4.0688C27.5406 4.38599 28.3938 4.9438 28.8859 5.30474C29.3891 5.66567 30.2859 6.45317 30.8875 7.06567C31.5 7.66724 32.2875 8.56411 32.6484 9.06724C33.0094 9.55942 33.5672 10.4125 33.8844 10.9704C34.2016 11.5282 34.65 12.4688 34.8906 13.0704C35.1203 13.6719 35.4156 14.536 35.5359 14.9844C35.6672 15.4329 35.8422 16.2204 35.9297 16.7344C36.0172 17.2485 36.1266 18.2 36.1594 18.8672C36.1922 19.6219 36.2906 20.2235 36.4 20.4969C36.5203 20.7704 36.7391 21.011 37.4609 21.4375H44.4937C49.2297 21.4375 51.7016 21.4813 52.0953 21.5579C52.4016 21.6235 52.9375 21.8094 53.2656 21.9625C53.6156 22.1266 54.1406 22.5204 54.5234 22.9032C54.8953 23.275 55.2781 23.7672 55.3984 24.0079C55.5078 24.2485 55.6938 24.686 55.8031 24.9922C55.9891 25.5172 56 26.25 56 54.25H0V36.5532C0 25.1016 0.04375 18.5172 0.109375 17.8829C0.175 17.3469 0.30625 16.5266 0.39375 16.0782C0.48125 15.6297 0.732813 14.7438 0.940625 14.1094C1.15938 13.475 1.54219 12.5235 1.80469 11.9766C2.05625 11.4297 2.63594 10.4454 3.07344 9.78911C3.53281 9.10005 4.35313 8.0938 4.97656 7.44849C5.57812 6.82505 6.46406 6.00474 6.94531 5.63286C7.42656 5.26099 8.1375 4.75786 8.53125 4.5063C8.925 4.26567 9.75625 3.81724 10.3906 3.52192C11.025 3.21567 11.9875 2.83286 12.5234 2.65786C13.0703 2.47192 13.9563 2.24224 14.4922 2.1438C15.0281 2.03442 15.6516 1.91411 15.8594 1.85942C16.0672 1.81567 17.0516 1.77192 18.0469 1.76099ZM14.8203 5.41411C14.4047 5.51255 13.6828 5.72036 13.2344 5.87349C12.7859 6.02661 12.0203 6.35474 11.5391 6.59536C11.0578 6.83599 10.3469 7.24067 9.95312 7.50317C9.55937 7.75474 8.87031 8.27974 8.42188 8.66255C7.97344 9.04536 7.30625 9.70161 6.94531 10.1172C6.58437 10.5438 6.08125 11.1782 5.82969 11.5391C5.58906 11.9 5.1625 12.6329 4.88906 13.1797C4.61562 13.7266 4.24375 14.6125 4.05781 15.1485C3.88281 15.6844 3.65313 16.5047 3.54375 16.9532C3.37969 17.675 3.34687 18.5829 3.31406 24.5329L3.28125 31.2813H52.7188C52.7188 26.25 52.6969 25.9985 52.5 25.5938C52.3542 25.3021 52.1354 25.0834 51.8438 24.9375C51.4172 24.7297 51.1875 24.7188 44.4062 24.7188C39.5938 24.7188 37.2313 24.675 36.8266 24.5985C36.5203 24.5219 35.9844 24.3469 35.6562 24.1938C35.3063 24.0297 34.7703 23.625 34.3984 23.2422C34.0156 22.8704 33.6109 22.3235 33.4469 21.9844C33.2937 21.6563 33.1188 21.1094 33.0531 20.7813C32.9875 20.4532 32.9109 19.6547 32.8781 18.9985C32.8453 18.3532 32.7359 17.4454 32.6484 16.986C32.55 16.5157 32.3422 15.7391 32.1891 15.2579C32.0359 14.7766 31.7406 14.011 31.5328 13.5625C31.325 13.1141 30.8328 12.25 30.4391 11.6485C29.9578 10.9047 29.3344 10.1719 28.5031 9.35161C27.8359 8.68442 26.9172 7.89692 26.4688 7.60161C26.0203 7.3063 25.2328 6.84692 24.7188 6.58442C24.2047 6.33286 23.3406 5.97192 22.8047 5.79692C22.2687 5.61099 21.4484 5.39224 21 5.30474C20.5516 5.21724 19.4688 5.1188 18.5938 5.08599C17.7188 5.06411 16.6906 5.08599 16.2969 5.14067C15.9031 5.19536 15.2359 5.32661 14.8203 5.41411ZM3.28125 50.9688H52.7188V34.5625H49.3281V47.6875H6.67188V34.5625H3.28125V50.9688ZM9.95312 44.4063H46.0469V34.5625H42.7656V41.125H39.4844V34.5625H36.2031V41.125H32.9219V34.5625H29.6406V41.125H26.3594V34.5625H23.0781V41.125H19.7969V34.5625H16.5156V41.125H13.2344V34.5625H9.95312V44.4063ZM16.5156 8.31255H17.7188C18.3969 8.31255 19.2938 8.38911 19.775 8.48755C20.2344 8.58599 20.8906 8.77192 21.2188 8.90317C21.5469 9.03442 22.1703 9.37349 22.5859 9.64692C23.0016 9.92036 23.6141 10.4125 23.9422 10.7297C24.2594 11.0579 24.7406 11.6375 24.9922 12.0313C25.2547 12.425 25.5828 13.0375 25.7359 13.3985C25.8891 13.7594 26.0859 14.4375 26.1844 14.8969C26.3156 15.5532 26.3594 16.4172 26.3594 21.4375H23.0781V18.6704C23.0781 16.7454 23.0344 15.75 22.9359 15.3672C22.8484 15.061 22.6734 14.5797 22.5203 14.2844C22.3781 13.9891 22.0609 13.5188 21.8094 13.2454C21.5687 12.9719 21.1203 12.5891 20.825 12.4032C20.5297 12.2063 20.1797 12.0204 19.7969 11.9219V17.7188C19.7969 21.5469 19.7531 23.7125 19.6766 24.0844C19.6109 24.4016 19.3703 25.0032 19.1516 25.4188C18.9219 25.8672 18.5391 26.3813 18.2 26.6766C17.9047 26.95 17.3687 27.311 17.0297 27.475C16.6906 27.65 16.0781 27.836 15.6625 27.9125C15.0938 28.011 14.7547 28.011 14.1312 27.9125C13.7047 27.836 13.0594 27.65 12.7094 27.486C12.3484 27.311 11.8125 26.9172 11.4297 26.5235C11.0359 26.1407 10.6422 25.6047 10.4672 25.2329C10.3031 24.8938 10.1172 24.2485 10.0406 23.811C9.94219 23.1985 9.94219 22.8594 10.0406 22.2797C10.1172 21.875 10.3031 21.2625 10.4672 20.9125C10.6422 20.5407 11.025 20.0266 11.4187 19.6329C11.8016 19.25 12.3484 18.8454 12.6875 18.6813C13.0156 18.5282 13.6062 18.3422 14 18.2657C14.3938 18.1891 14.9625 18.1563 15.2578 18.1891C15.5641 18.2219 15.9688 18.2875 16.5156 18.4297V8.31255ZM13.4313 22.3344C13.3328 22.5313 13.2453 22.8594 13.2453 23.0454C13.2453 23.2422 13.3328 23.5922 13.4422 23.811C13.5625 24.0516 13.8359 24.325 14.0766 24.4672C14.3062 24.5985 14.6562 24.7079 14.8531 24.7188C15.05 24.7188 15.4 24.6204 15.6406 24.5C15.9323 24.3542 16.151 24.1355 16.2969 23.8438C16.4172 23.6032 16.5156 23.2641 16.5156 23.0782C16.5156 22.8922 16.4172 22.5532 16.2969 22.3125C16.151 22.0209 15.9323 21.8021 15.6406 21.6563C15.4 21.536 15.05 21.4375 14.8531 21.4375C14.6562 21.4375 14.2953 21.5579 14.0547 21.711C13.8141 21.8532 13.5406 22.1375 13.4313 22.3344Z" fill="#B78AAC"/>
</svg>
