<svg width="21" height="16" viewBox="0 0 21 16" fill="none" xmlns="http://www.w3.org/2000/svg">
<path d="M9.56805 4.875C9.5993 5.0625 9.63055 5.28125 9.63055 5.5C9.63055 5.75 9.5993 5.96875 9.56805 6.15625L10.2556 6.78125C10.4743 6.96875 10.5681 7.28125 10.4431 7.5625C10.3806 7.71875 10.2868 7.90625 10.2243 8.0625L10.1306 8.21875C10.0056 8.375 9.9118 8.53125 9.81805 8.6875C9.63055 8.90625 9.31805 9 9.0368 8.90625L8.1618 8.59375C7.81805 8.875 7.44305 9.09375 7.0368 9.25L6.81805 10.1562C6.7868 10.4688 6.5368 10.6875 6.25555 10.7188C6.0368 10.75 5.81805 10.75 5.63055 10.75C5.4118 10.75 5.19305 10.75 4.9743 10.7188C4.69305 10.6875 4.44305 10.4688 4.4118 10.1562L4.19305 9.25C3.7868 9.09375 3.4118 8.875 3.06805 8.59375L2.19305 8.90625C1.9118 9 1.5993 8.90625 1.4118 8.6875C1.31805 8.53125 1.19305 8.375 1.0993 8.21875L1.00555 8.0625C0.943054 7.90625 0.849304 7.71875 0.786804 7.5625C0.661804 7.28125 0.755554 6.96875 0.974304 6.78125L1.6618 6.15625C1.63055 5.96875 1.5993 5.75 1.5993 5.5C1.5993 5.28125 1.63055 5.0625 1.6618 4.875L0.974304 4.25C0.755554 4.03125 0.661804 3.71875 0.786804 3.46875C0.849304 3.28125 0.943054 3.125 1.00555 2.96875L1.0993 2.8125C1.19305 2.65625 1.31805 2.5 1.4118 2.34375C1.5993 2.125 1.9118 2.03125 2.19305 2.125L3.06805 2.4375C3.4118 2.15625 3.7868 1.9375 4.19305 1.78125L4.4118 0.875C4.44305 0.5625 4.69305 0.34375 4.9743 0.3125C5.19305 0.28125 5.4118 0.25 5.63055 0.25C5.81805 0.25 6.0368 0.28125 6.25555 0.3125C6.5368 0.34375 6.7868 0.5625 6.81805 0.875L7.0368 1.78125C7.44305 1.9375 7.81805 2.15625 8.1618 2.4375L9.0368 2.125C9.31805 2.03125 9.63055 2.125 9.81805 2.34375C9.9118 2.5 10.0056 2.65625 10.1306 2.8125L10.2243 2.96875C10.2868 3.125 10.3806 3.28125 10.4431 3.46875C10.5681 3.71875 10.4743 4.03125 10.2556 4.25L9.56805 4.875ZM5.63055 4C4.7868 4 4.13055 4.6875 4.13055 5.5C4.13055 6.34375 4.7868 7 5.63055 7C6.44305 7 7.13055 6.34375 7.13055 5.5C7.13055 4.6875 6.44305 4 5.63055 4ZM15.7556 14.9688C15.5681 15 15.3493 15 15.1306 15C14.8806 15 14.6618 15 14.4743 14.9688L13.8493 15.6562C13.6306 15.875 13.3493 15.9688 13.0681 15.8438C12.9118 15.7812 12.7243 15.6875 12.5681 15.625L12.4118 15.5C12.2556 15.4062 12.0993 15.3125 11.9431 15.2188C11.7243 15.0312 11.6306 14.7188 11.7243 14.4375L12.0368 13.5625C11.7556 13.2188 11.5368 12.8438 11.3806 12.4062L10.4743 12.2188C10.1618 12.1562 9.94305 11.9375 9.9118 11.6562C9.88055 11.4375 9.88055 11.2188 9.88055 11C9.88055 10.8125 9.88055 10.5938 9.9118 10.375C9.94305 10.0938 10.1618 9.84375 10.4743 9.78125L11.3806 9.59375C11.5368 9.1875 11.7556 8.8125 12.0368 8.46875L11.7243 7.59375C11.6306 7.3125 11.7243 7 11.9431 6.8125C12.0993 6.71875 12.2556 6.59375 12.4118 6.5L12.5681 6.40625C12.7243 6.34375 12.8806 6.25 13.0681 6.1875C13.3493 6.0625 13.6306 6.15625 13.8493 6.375L14.4743 7.0625C14.6618 7.03125 14.8806 7 15.1306 7C15.3493 7 15.5681 7.03125 15.7556 7.0625L16.3806 6.375C16.5993 6.15625 16.8806 6.0625 17.1618 6.1875C17.3493 6.25 17.5056 6.34375 17.6618 6.40625L17.8181 6.5C17.9743 6.59375 18.1306 6.71875 18.2868 6.8125C18.5056 7 18.5993 7.3125 18.5056 7.59375L18.1931 8.46875C18.4743 8.8125 18.6931 9.1875 18.8493 9.59375L19.7556 9.78125C20.0681 9.84375 20.2868 10.0938 20.3181 10.375C20.3493 10.5938 20.3806 10.8125 20.3806 11C20.3806 11.2188 20.3493 11.4375 20.3181 11.6562C20.2868 11.9375 20.0681 12.1562 19.7556 12.2188L18.8493 12.4062C18.6931 12.8438 18.4743 13.2188 18.1931 13.5625L18.5056 14.4375C18.5993 14.7188 18.5056 15.0312 18.2868 15.2188C18.1306 15.3125 17.9743 15.4062 17.8181 15.5L17.6618 15.625C17.5056 15.6875 17.3181 15.7812 17.1618 15.8438C16.8806 15.9688 16.5993 15.875 16.3806 15.6562L15.7556 14.9688ZM16.6306 11C16.6306 10.1875 15.9431 9.5 15.1306 9.5C14.2868 9.5 13.6306 10.1875 13.6306 11C13.6306 11.8438 14.2868 12.5 15.1306 12.5C15.9431 12.5 16.6306 11.8438 16.6306 11Z" fill="white"/>
</svg>
