<svg width="16" height="16" viewBox="0 0 16 16" fill="none" xmlns="http://www.w3.org/2000/svg">
<path d="M14.2948 7.36669L8.16816 13.4934C7.4176 14.2439 6.39962 14.6656 5.33816 14.6656C4.27671 14.6656 3.25872 14.2439 2.50816 13.4934C1.7576 12.7428 1.33594 11.7248 1.33594 10.6634C1.33594 9.6019 1.7576 8.58392 2.50816 7.83336L8.2215 2.12002C8.72187 1.61876 9.40088 1.33681 10.1091 1.33618C10.8174 1.33556 11.4969 1.61631 11.9982 2.11669C12.4994 2.61706 12.7814 3.29607 12.782 4.00433C12.7826 4.71259 12.5019 5.3921 12.0015 5.89336L6.27483 11.6067C6.02464 11.8569 5.68531 11.9974 5.3315 11.9974C4.97768 11.9974 4.63835 11.8569 4.38816 11.6067C4.13797 11.3565 3.99742 11.0172 3.99742 10.6634C3.99742 10.3095 4.13797 9.97021 4.38816 9.72002L10.0482 4.06669" stroke="#777777" stroke-width="1.2" stroke-linecap="round" stroke-linejoin="round"/>
</svg>
