<svg width="16" height="16" viewBox="0 0 16 16" fill="none" xmlns="http://www.w3.org/2000/svg">
<path d="M13.3385 6.66659C13.3385 9.99525 9.64587 13.4619 8.40588 14.5326C8.29036 14.6194 8.14974 14.6664 8.00521 14.6664C7.86068 14.6664 7.72006 14.6194 7.60454 14.5326C6.36454 13.4619 2.67188 9.99525 2.67188 6.66659C2.67188 5.2521 3.23378 3.89554 4.23397 2.89535C5.23417 1.89516 6.59072 1.33325 8.00521 1.33325C9.4197 1.33325 10.7763 1.89516 11.7764 2.89535C12.7766 3.89554 13.3385 5.2521 13.3385 6.66659Z" fill="#671252"/>
<path d="M8 9.65991C9.65685 9.65991 11 8.31677 11 6.65991C11 5.00306 9.65685 3.65991 8 3.65991C6.34315 3.65991 5 5.00306 5 6.65991C5 8.31677 6.34315 9.65991 8 9.65991Z" fill="white"/>
</svg>
