<svg width="320" height="320" viewBox="0 0 320 320" fill="none" xmlns="http://www.w3.org/2000/svg">
<path fill-rule="evenodd" clip-rule="evenodd" d="M86.4375 24.4378C88.375 24.4378 93.3125 24.9378 97.3125 25.6878C101.375 26.3753 107.063 27.8753 110 28.9378C112.938 30.0628 117.438 32.1253 120 33.6253C122.563 35.0628 126.813 38.0628 129.375 40.1878C131.938 42.3128 136 46.5003 138.313 49.3753C140.875 52.5628 143.938 57.4378 146 61.5628C148 65.6253 150.063 71.0003 151 74.6878C152.375 79.9378 152.625 82.4378 152.688 90.0003C152.75 96.2503 152.438 100.688 151.688 104.375C151.125 107.313 149.938 111.938 149.063 114.688C148.188 117.438 145.625 123.313 143.438 127.813C141.313 132.313 138.063 138.188 136.25 140.938C134.438 143.688 126.875 154 119.438 163.938C112 173.813 106.063 182 106.25 182.125C106.438 182.25 108.375 182.125 110.625 181.813C112.875 181.5 116.75 180.688 119.188 180C121.688 179.313 125.25 178 127 177.125C128.813 176.188 133.125 173.75 136.563 171.688C140 169.625 146.063 166.313 150 164.313C153.938 162.313 160.25 159.563 164.063 158.188C166.798 157.23 170.831 155.907 174.293 154.848C176.608 149.482 179.932 144.547 184.145 140.335C192.896 131.583 204.766 126.666 217.143 126.666C227.302 126.666 237.119 129.979 245.151 136.005C245.594 135.33 246.007 134.676 246.375 134.063C248.438 130.625 251.75 125.875 253.688 123.438C255.625 121.063 259.313 117.438 261.875 115.375C264.438 113.375 269.125 110.438 272.188 108.938C275.313 107.438 280.125 105.75 282.938 105.125C285.75 104.563 288.188 104.188 288.375 104.375C288.563 104.563 295.563 121.688 304 142.5C312.438 163.313 319.375 180.688 319.5 181.188C319.625 181.75 316.938 183.125 311.563 185.375C307.125 187.25 303.188 188.688 302.813 188.5C302.438 188.375 300.375 183.688 298.125 178.125C295.875 172.563 293.875 167.875 293.563 167.75C293.313 167.625 292.125 168.688 290.938 170.188C289.688 171.625 288.125 174.313 287.5 176.125C286.813 177.875 285.688 182.563 285 186.438C284.313 190.25 283.438 194.563 283.063 195.938C282.688 197.313 281.625 200 280.625 201.875L280.624 201.877C279.687 203.752 278.187 206.751 277.25 208.438C276.375 210.188 275.625 211.938 275.625 212.375C275.625 212.938 277.313 213.125 288.438 213.188L296.75 234.25C301.313 245.813 305.688 257.563 306.5 260.313C307.313 263.063 308.438 268.25 308.938 271.875C309.5 275.5 310.063 280.5 310.625 287.5H291.875L291.563 285.438C291.438 284.375 291.125 281.188 290.938 278.438C290.688 275.688 289.813 270.75 289 267.5C288.125 264.25 287.25 261.375 287 261.125C286.75 260.938 282.563 262.688 277.625 265.063C269.563 269 268.688 269.25 267.938 268.313C267.563 267.75 265.5 266.188 263.438 264.875C261.375 263.563 258.563 262.313 257.188 262.125C255.625 261.875 253.875 262.125 252.5 262.688C251.313 263.125 249.375 264.375 248.188 265.375C247.063 266.375 244.875 269 243.438 271.25C241.938 273.5 239.125 276.875 237.125 278.75C235.063 280.688 231.875 283 230 283.875C228.125 284.813 224.75 286.063 222.5 286.625C219.375 287.5 216.5 287.688 210 287.5C205.375 287.375 198.625 287.25 195 287.25C188.813 287.313 188 287.438 180.313 290.25C175.875 291.813 169.375 293.688 165.938 294.375C162.5 295.063 158.563 295.625 157.188 295.625C155.813 295.625 152.125 295.063 149.063 294.375C145.813 293.625 141.063 292 137.813 290.375C134.75 288.875 130.188 286.188 127.813 284.438C125.375 282.688 121.438 279.688 119.063 277.75C116.625 275.875 112.438 273.188 109.688 271.875C106.938 270.5 102.125 268.813 99.0625 268.063C94.3125 266.938 92.125 266.813 85 267C77.9375 267.25 75.75 267.563 71.5625 269C68.8125 269.938 64.75 271.688 62.5 272.938C60.25 274.125 56.9375 276.313 55.0625 277.688C53.1875 279.125 48.6875 283.625 38.4375 295.063L25.9375 295L13.125 271.75C6.06254 259 0.250041 248.375 0.187541 248.188C0.0625413 248 4.93754 244.563 21.875 233.438L21.5 230.938C21.25 229.563 21.0625 225.75 21.125 222.5C21.1875 218.688 21.625 214.813 22.5 211.563C23.25 208.813 24.875 204.625 26.125 202.188C27.5625 199.438 30 196.188 32.8125 193.438C35.5625 190.688 38.875 188.188 41.5625 186.75C44 185.5 47.875 183.875 50.3125 183.125C52.6875 182.375 57.1875 181.625 60.3125 181.5C63.375 181.313 66.3125 181 66.6875 180.875C67.1875 180.75 62.5625 174.063 55.1875 164.25C48.4375 155.188 40.9375 144.875 38.625 141.25C36.25 137.625 32.8125 131.625 30.9375 127.813C29.125 124 26.75 118.375 25.75 115.313C24.75 112.25 23.375 106.875 22.8125 103.438C21.9375 98.5628 21.75 95.1253 22 87.8128C22.3125 80.0628 22.625 77.5003 24 72.8128C24.9375 69.6878 26.625 65.1878 27.75 62.8128C28.8125 60.4378 31.25 56.1878 33.125 53.4378C35 50.7503 38.6875 46.3753 41.25 43.8753C43.8125 41.3128 48.1875 37.7503 50.9375 35.8753C53.6875 34.0628 57.875 31.6878 60.3125 30.6253C62.6875 29.5628 66.625 28.1253 69.0625 27.4378C71.4375 26.8128 75.5625 25.8753 78.125 25.3753C80.6875 24.9378 84.4375 24.5003 86.375 24.4378H86.4375ZM257.953 150.698C261.76 157.563 263.81 165.343 263.81 173.333C263.81 191.005 252.318 207.377 242.597 218.313C237.535 224.008 232.5 228.726 228.74 232.016C226.853 233.666 225.272 234.971 224.149 235.874C223.587 236.326 223.138 236.678 222.821 236.923C222.736 236.989 222.66 237.048 222.595 237.098L222.5 237.171L222.448 237.21L222.339 237.293L222.294 237.327C222.292 237.328 222.286 237.333 217.143 230.476L211.996 237.33L211.946 237.293L211.838 237.21C211.748 237.142 211.623 237.046 211.464 236.923C211.148 236.678 210.699 236.326 210.137 235.874C209.013 234.971 207.432 233.666 205.546 232.016C201.786 228.726 196.751 224.008 191.689 218.313C182.428 207.895 171.562 192.546 170.552 175.838C170.405 175.855 170.244 175.892 170.063 175.938C169.188 176.125 165.125 177.938 161 179.938C156.875 181.875 149.563 185.875 144.75 188.75C139.938 191.563 134 194.688 131.625 195.688C129.188 196.625 125 198 122.25 198.688C119.5 199.375 114.875 200.25 111.938 200.625C109 201.063 101.563 201.375 95.375 201.375C89.1876 201.313 81.5625 201.063 78.5 200.688C75.375 200.313 69.9375 200 66.3125 200C61.5625 200 58.625 200.313 55.6875 201.188C53.4375 201.875 50.375 203.375 48.8125 204.5C47.25 205.688 45.0625 207.875 43.9375 209.438C42.75 210.938 41.375 213.75 40.8125 215.625C40.25 217.563 39.8125 221.125 39.875 223.75C39.875 227.563 40.3125 229.5 42.1875 234.188C43.4375 237.375 44.4375 240.188 44.4375 240.438C44.5 240.75 40.125 243.875 34.75 247.5C29.375 251.125 25 254.125 25.0625 254.188C25.0625 254.313 27.0625 257.938 29.5 262.313C31.0533 265.14 32.4796 267.689 33.3424 269.231L33.3428 269.231C33.8338 270.109 34.1422 270.66 34.1875 270.75C34.3125 271.063 36.5 269.313 38.9375 267C41.4375 264.625 45.1875 261.563 47.25 260.188C49.3125 258.813 52.8125 256.75 55.0625 255.625C57.3125 254.5 60.8125 252.938 62.875 252.188C64.9375 251.375 68.5625 250.25 71 249.688C73.375 249.125 78.1875 248.438 81.625 248.188C85.0625 247.938 90.5626 247.938 93.8125 248.188C97.0625 248.5 102.438 249.438 105.688 250.313C108.938 251.188 114.438 253.25 117.875 254.938C121.313 256.625 126.375 259.688 129.125 261.75C130.122 262.521 131.276 263.406 132.439 264.3C134.484 265.87 136.56 267.465 137.875 268.5C139.938 270.063 143.75 272.438 146.313 273.688C150.813 275.813 151.313 275.938 157.563 275.938C163.813 275.938 164.563 275.813 173.813 272.688C179.125 270.875 185.438 269.063 187.875 268.688C190.938 268.188 194.938 268.125 201 268.438C205.813 268.75 211.563 268.938 213.813 268.875C216.75 268.75 218.813 268.25 221.313 267C224.25 265.563 225.313 264.5 228.625 259.688C230.75 256.563 234 252.75 235.813 251.063C237.625 249.438 240.813 247.313 242.875 246.313C244.938 245.25 248.438 244.125 250.688 243.75C253.5 243.25 256 243.188 258.813 243.625C261.063 243.938 264.688 244.938 266.938 245.813L271 247.438L279.938 242.813L275.688 231.875L261.063 231.563C257.063 221.688 256.75 220.188 256.75 215.625C256.688 212.313 257.125 208.875 257.813 206.563C258.438 204.5 260.313 200.25 261.938 197.188C264.563 192.375 265.188 190.438 266.313 184.063C267.063 179.938 268.25 174.75 268.938 172.5C269.625 170.25 271.063 166.75 272.063 164.688C273.375 162.063 275.813 159.125 280.125 154.813L286.313 148.75C279.938 133 277.875 128.25 277.625 127.938C277.375 127.688 276.063 128.25 274.75 129.25C273.375 130.25 271 132.438 269.438 134.125C267.875 135.813 265.688 138.75 264.5 140.625C263.375 142.5 260.813 146.438 258.875 149.375C258.608 149.779 258.298 150.224 257.953 150.698ZM211.996 237.33C215.044 239.616 219.238 239.619 222.286 237.333L217.143 230.476C212 237.333 211.998 237.332 211.996 237.33ZM66.625 48.5628C64.1875 49.7503 60.8125 51.8128 59.125 53.1253C57.375 54.3753 54.5 57.0628 52.625 59.1253C50.8125 61.1253 48.1875 64.6253 46.875 66.8753C45.5625 69.1253 43.75 73.1878 42.8125 75.9378C41.5 79.8753 41.0625 82.5003 40.8125 88.1253C40.625 92.2503 40.8125 97.1878 41.25 99.6878C41.6875 102.063 42.6875 106.313 43.5625 109.063C44.4375 111.813 46.25 116.313 47.5625 119.063C48.875 121.813 51.5625 126.625 53.5 129.688C55.4375 132.75 61.5625 141.375 67.125 148.75C72.625 156.125 79.5 165.188 82.375 168.938L87.5625 175.625C111.188 143.875 119.438 132.438 121.188 129.688C122.875 126.938 125.313 122.563 126.625 120C127.938 117.438 129.875 112.5 131.063 109.063C132.25 105.438 133.375 100.188 133.813 96.5628C134.313 92.0003 134.375 88.9378 133.875 85.3128C133.5 82.5628 132.75 78.7503 132.188 76.8753C131.625 75.0003 130 71.1878 128.625 68.4378C126.625 64.6253 124.688 62.1253 120.375 57.8128C117.313 54.6878 113.188 51.2503 111.313 50.1253C109.438 49.0628 105.313 47.2503 102.25 46.1253C97.3125 44.4378 95.625 44.1253 88.8125 44.0003C82.5 43.8128 80.0625 44.0003 76 45.0628C73.25 45.7503 69 47.3128 66.625 48.5628ZM86.9375 59.4378C89.5 59.3753 93.3126 59.8128 95.375 60.3753C97.4375 60.8753 100.5 62.0628 102.25 63.0003C103.938 63.9378 107.125 66.3753 109.188 68.4378C111.938 71.0628 113.688 73.5628 115.313 76.8753C116.688 79.8128 117.813 83.3128 118.188 86.2503C118.688 89.4378 118.688 92.1253 118.313 94.6878C117.938 96.7503 117.125 100 116.438 101.875C115.688 103.75 113.875 107 112.375 109.063C110.875 111.125 108.25 113.875 106.563 115.125C104.875 116.375 101.938 118.125 100.063 119C98.1875 119.875 94.625 120.938 92.25 121.375C88.8125 121.938 86.8126 121.938 82.875 121.375C80.0001 120.938 76.1875 119.813 73.9375 118.75C71.8125 117.688 68.3125 115.25 66.125 113.188C63.8125 111 61.375 107.938 60.125 105.563C58.9375 103.375 57.625 100.125 57.125 98.4378C56.6875 96.6878 56.3125 93.0628 56.3125 90.3128C56.3125 87.5003 56.75 83.8128 57.3125 81.8753C57.875 80.0003 59.1875 76.8753 60.25 75.0003C61.3125 73.1253 63.75 70.0003 65.6875 68.1253C67.625 66.2503 70.875 63.8753 72.875 62.8753C74.9375 61.8753 77.875 60.6878 79.4375 60.2503C81 59.8128 84.3751 59.4378 86.9375 59.4378ZM77.3125 83.3128C75.75 85.3128 75.3125 86.4378 75.125 89.5628C74.9375 92.5628 75.1875 94.0003 76.25 96.0628C76.9375 97.5628 78.5 99.4378 79.5625 100.25C80.6875 101.063 82.75 102.063 84.125 102.5C85.5625 102.938 87.6876 103.125 89.125 102.875C90.5001 102.688 92.5625 101.938 93.625 101.25C94.75 100.563 96.375 99.0628 97.1875 97.9378C98 96.8753 99 94.7503 99.375 93.2503C99.875 91.4378 99.875 89.8128 99.4375 87.9378C99.125 86.5003 98.1875 84.4378 97.4375 83.3128C96.625 82.2503 95.0625 80.6878 93.875 79.8753C92.375 78.8753 90.5625 78.3753 88.25 78.2503C85.5625 78.0628 84.125 78.3753 82 79.5003C80.4375 80.3128 78.3125 82.0003 77.3125 83.3128ZM217.143 143.809C209.313 143.809 201.803 146.92 196.266 152.457C190.73 157.993 187.619 165.503 187.619 173.333C187.619 184.233 195.175 196.432 204.502 206.924C208.964 211.944 213.452 216.155 216.835 219.115C216.939 219.205 217.041 219.295 217.143 219.383C217.244 219.295 217.347 219.205 217.451 219.115C220.833 216.155 225.322 211.944 229.784 206.924C239.11 196.432 246.667 184.233 246.667 173.333C246.667 165.503 243.556 157.993 238.019 152.457C232.483 146.92 224.973 143.809 217.143 143.809ZM217.143 170.476C215.565 170.476 214.286 171.756 214.286 173.334C214.286 174.912 215.565 176.191 217.143 176.191C218.721 176.191 220 174.912 220 173.334C220 171.756 218.721 170.476 217.143 170.476ZM231.429 173.334C231.429 181.223 225.033 187.619 217.143 187.619C209.253 187.619 202.857 181.223 202.857 173.334C202.857 165.444 209.253 159.048 217.143 159.048C225.033 159.048 231.429 165.444 231.429 173.334Z" fill="#C21397" fill-opacity="0.1"/>
</svg>
