<svg width="320" height="320" viewBox="0 0 320 320" fill="none" xmlns="http://www.w3.org/2000/svg">
<g clip-path="url(#clip0_441_113)">
<path fill-rule="evenodd" clip-rule="evenodd" d="M244.062 0H274.5C291.312 0 305 0.0625 305 0.1875C305 0.25 308.312 39.25 319.688 173.438L320 320H0V203.125C0 138.812 0.125 86.25 0.3125 86.25C0.5 86.25 16.875 94.8125 36.75 105.25C56.5625 115.75 73.3125 124.437 73.9375 124.625C74.9375 125 75 123.812 75 105.625C75 94.9375 75.125 86.25 75.3125 86.25C75.5 86.25 91.875 94.8125 111.75 105.25C131.562 115.75 148.312 124.437 148.938 124.625C149.938 125 150 123.812 150 105.625C150 94.9375 150.125 86.25 150.312 86.25C150.5 86.25 169.125 95.9375 191.75 107.875C214.312 119.75 232.938 129.188 233.125 128.875C233.312 128.5 235.812 99.375 238.75 64.125L244.062 0ZM257.188 80.625C254.625 112.438 252.5 138.812 252.5 139.25C252.5 139.625 262.75 145.375 275.312 151.875C287.875 158.438 298.25 163.688 298.438 163.625C298.562 163.5 296.062 131.5 292.812 92.5C289.562 53.5 286.875 21.1875 286.875 20.8125C286.875 20.1875 284 20 274.688 20C262.562 20 262.5 20 262.25 21.4375C262.062 22.1875 259.812 48.8125 257.188 80.625ZM20 200H190V273.75H20V300H209.375V200H280.625V300H300V187.188L170.312 119C170.062 153.125 169.812 157.5 169.25 157.5C168.812 157.5 152 148.812 131.875 138.25L95.3125 119C95.0625 149.312 94.9375 158.125 94.875 158.125C94.75 158.125 77.8125 149.312 57.25 138.5L19.75 118.875L20 200ZM20 253.75H170V220H20V253.75ZM229.375 300H260.625V220H229.375V300Z" fill="#F942DB" fill-opacity="0.07"/>
</g>
<defs>
<clipPath id="clip0_441_113">
<rect width="320" height="320" fill="white"/>
</clipPath>
</defs>
</svg>
