<svg width="48" height="48" viewBox="0 0 48 48" fill="none" xmlns="http://www.w3.org/2000/svg">
<g clip-path="url(#clip0_276_72)">
<path fill-rule="evenodd" clip-rule="evenodd" d="M18.4688 0H29.5312V4.875L30.5813 5.23125C31.1625 5.41875 32.0812 5.79375 33.6094 6.54375L37.0781 3.09375L44.9062 10.9219L41.4563 14.3906L41.9531 15.4219C42.225 15.9937 42.6 16.9031 43.125 18.4688H48V29.5312H43.125L42.7875 30.5344C42.6 31.0969 42.225 32.0062 41.4563 33.6094L44.9062 37.0781L37.0781 44.9062L33.6094 41.4563L32.625 41.9437C32.0812 42.2062 31.1625 42.5812 29.5312 43.125V48H18.4688V43.125L17.4656 42.7875C16.9031 42.6 15.9937 42.225 14.3906 41.4563L10.9219 44.9062L3.09375 37.0781L6.54375 33.6094L6.04688 32.5781C5.76562 32.0062 5.39062 31.0969 4.875 29.5312H0V18.4688H4.875L5.2125 17.4562C5.4 16.9031 5.775 15.9937 6.54375 14.3906L3.09375 10.9219L10.9219 3.09375L14.3906 6.54375L15.4219 6.04688C15.9937 5.76562 16.9031 5.39062 18.4688 4.875V0ZM21.2344 7.06875C19.4156 7.5375 18.5719 7.78125 18.1875 7.92188C17.8031 8.0625 17.1469 8.33438 16.7344 8.53125C16.3219 8.71875 15.5531 9.13125 15.0187 9.45C14.4937 9.76875 14.0344 10.0312 13.9969 10.0312C13.95 10.0312 13.2562 9.36562 12.4406 8.55L10.9688 7.07812L7.07812 10.9688C9.36563 13.2563 10.0312 13.95 10.0312 13.9969C10.0312 14.0344 9.80625 14.4281 9.525 14.8875C9.25313 15.3375 8.87813 16.0031 8.7 16.3594C8.5125 16.725 8.2125 17.4375 8.01562 17.9531C7.82812 18.4688 7.52812 19.4156 7.35938 20.0625L7.05938 21.2344L2.8125 21.2812V26.7188L7.05938 26.7656C7.52813 28.5844 7.82812 29.5312 8.01562 30.0469C8.2125 30.5625 8.49375 31.2375 8.65313 31.5469C8.80313 31.8563 9.17812 32.5219 9.47812 33.0281C9.7875 33.525 10.0312 33.9656 10.0312 34.0125C10.0312 34.05 9.36562 34.7437 8.55 35.5594L7.07812 37.0312L10.9688 40.9219C13.3125 38.6344 14.0156 37.9688 14.025 37.9688C14.0438 37.9688 14.5594 38.2594 15.1688 38.625C15.7688 38.9813 16.6594 39.45 17.1375 39.6562C17.6063 39.8625 18.1031 40.05 18.2344 40.0781L18.4688 40.125L18.4781 33.5156C17.4563 32.8219 16.8375 32.3156 16.4344 31.95C16.0406 31.575 15.4688 30.9281 15.1594 30.5156C14.85 30.1031 14.3719 29.3062 14.1 28.7344C13.8094 28.1437 13.4906 27.3 13.3594 26.7656C13.2281 26.25 13.0875 25.4062 13.0406 24.8906C12.9938 24.375 12.9938 23.5312 13.0406 23.0156C13.0875 22.5 13.2281 21.6562 13.3594 21.1406C13.5 20.5875 13.8 19.7812 14.1 19.1719C14.3812 18.6 14.85 17.8031 15.1594 17.3906C15.4688 16.9781 16.0312 16.3406 16.4156 15.9844C16.8 15.6187 17.4937 15.075 17.9531 14.7656C18.4406 14.4469 19.3875 13.9594 20.1844 13.6219C20.9438 13.2938 21.5812 13.0312 21.6094 13.0312C21.6375 13.0312 21.6562 15.1688 21.6562 17.7938L21.6469 22.5469L24.0469 23.9813L26.3531 22.5469L26.3438 13.0312C26.6719 13.125 27.3188 13.3875 27.9844 13.6781C28.65 13.9687 29.5687 14.4469 30.0281 14.7469C30.4781 15.0375 31.1625 15.5906 31.5656 15.9656C31.9594 16.3313 32.5312 16.9781 32.8406 17.3906C33.15 17.8031 33.6188 18.6 33.9 19.1719C34.2 19.7812 34.5 20.5875 34.6406 21.1406C34.7719 21.6562 34.9219 22.5 34.9688 23.0156C35.0156 23.5969 35.0156 24.3094 34.9688 24.8906C34.9219 25.4062 34.7719 26.25 34.6406 26.7656C34.5 27.3094 34.1906 28.1437 33.9 28.7344C33.6281 29.3062 33.15 30.1031 32.8406 30.5156C32.5312 30.9281 31.9312 31.5938 31.4906 32.0062C31.0594 32.4094 30.4406 32.9156 30.1125 33.1312L29.5312 33.5156C29.5312 39.4031 29.5594 40.125 29.6531 40.125C29.7094 40.125 30.225 39.9187 30.7969 39.6844C31.3687 39.4406 32.3062 38.9531 32.8875 38.6062C33.4594 38.2594 33.9656 37.9688 34.0125 37.9688C34.05 37.9688 34.7437 38.6344 35.5594 39.45L37.0312 40.9219L40.9219 37.0312C38.6344 34.7438 37.9688 34.05 37.9688 34.0125C37.9688 33.9656 38.2313 33.5062 38.55 32.9812C38.8688 32.4469 39.2812 31.6781 39.4688 31.2656C39.6656 30.8531 39.9375 30.1969 40.0781 29.8125C40.2188 29.4281 40.4625 28.5844 40.6312 27.9375L40.9313 26.7656L45.1875 26.7188V21.2812L40.9406 21.2344C40.4719 19.4156 40.1719 18.4688 39.9844 17.9531C39.7875 17.4375 39.5063 16.7625 39.3469 16.4531C39.1969 16.1437 38.8219 15.4781 38.5219 14.9813C38.2125 14.475 37.9688 14.0344 37.9688 13.9969C37.9688 13.95 38.6344 13.2562 39.45 12.4406L40.9219 10.9688L37.0312 7.07812C34.7438 9.36563 34.05 10.0312 34.0031 10.0312C33.9656 10.0312 33.5438 9.7875 33.0656 9.49688C32.5969 9.20625 31.7812 8.76562 31.2656 8.53125C30.75 8.2875 29.9719 7.96875 29.5312 7.82812C29.0906 7.67812 28.2938 7.45312 27.75 7.3125L26.7656 7.06875L26.7281 2.8125H21.2812L21.2344 7.06875ZM18.4969 17.8781C18.3281 18.0094 17.9344 18.4406 17.6156 18.8344C17.3062 19.2281 16.8562 19.9219 16.6312 20.3906C16.4156 20.85 16.1344 21.6094 16.0312 22.0781C15.8906 22.6688 15.8344 23.2313 15.8344 23.9531C15.8344 24.6844 15.8906 25.2281 16.0312 25.8281C16.1437 26.2875 16.3687 26.9625 16.5375 27.3281C16.7062 27.6844 17.025 28.2563 17.25 28.5938C17.475 28.9219 17.9156 29.4562 18.2344 29.7656C18.5438 30.075 19.05 30.5063 19.3594 30.7125C19.6688 30.9281 20.2313 31.2469 20.6063 31.4344L21.2812 31.7812V45.1875H26.7188V31.7812C27.7781 31.2469 28.3312 30.9281 28.6406 30.7125C28.95 30.5063 29.4656 30.0844 29.775 29.7656C30.0844 29.4562 30.525 28.9219 30.75 28.5938C30.9844 28.2563 31.3031 27.6844 31.4719 27.3281C31.6406 26.9625 31.8656 26.2875 31.9781 25.8281C32.1188 25.2188 32.1844 24.6844 32.1844 23.9531C32.1844 23.2219 32.1188 22.6688 31.9781 22.0781C31.8656 21.5719 31.5938 20.85 31.3125 20.2969C31.0594 19.7812 30.6 19.0594 30.3094 18.7031C30.0094 18.3375 29.625 17.9531 29.4563 17.8312L29.1562 17.625V24.1875C25.275 26.5031 24.0937 27.1781 24.0281 27.1781C23.9625 27.1875 22.7719 26.5031 21.375 25.6594L18.8438 24.1406L18.7969 17.625L18.4969 17.8781Z" fill="white"/>
</g>
<defs>
<clipPath id="clip0_276_72">
<rect width="48" height="48" fill="white"/>
</clipPath>
</defs>
</svg>
