<svg width="48" height="48" viewBox="0 0 48 48" fill="none" xmlns="http://www.w3.org/2000/svg">
<g clip-path="url(#clip0_276_70)">
<path fill-rule="evenodd" clip-rule="evenodd" d="M18.3281 0.00931848C18.7594 -5.65248e-05 19.2469 0.0655685 19.4812 0.140568C19.6969 0.215568 20.1 0.393693 20.3625 0.524943C20.6344 0.665568 21.0937 1.01244 21.375 1.30307C21.6562 1.59369 21.9937 2.05307 22.3594 2.82182L36.6562 2.81244V10.0781C36.6562 15.8437 36.6844 17.3343 36.7687 17.3156C36.8344 17.2968 37.65 15.6374 38.5875 13.6312C39.5344 11.5968 40.3312 9.99369 40.3875 10.0031C40.4531 10.0218 42.1594 10.7999 44.1844 11.7374C46.2 12.6749 47.8875 13.4812 47.925 13.5374C47.9531 13.5937 47.925 13.7249 47.8594 13.8281C47.7844 13.9312 45.2344 19.3968 36.6469 37.9218L36.6562 47.9999H0V2.81244H14.3906L14.5781 2.37182C14.6812 2.12807 14.9531 1.71557 15.1875 1.46244C15.4219 1.20932 15.7969 0.871818 16.0312 0.712443C16.2656 0.553068 16.7062 0.337443 17.0156 0.215568C17.4187 0.0655685 17.7937 0.00931848 18.3281 0.00931848ZM17.2031 3.41244C17.0437 3.62807 17.0156 3.84369 16.9875 4.64994L16.9687 5.62494H14.1562V8.43744H22.5937V5.62494H19.7812C19.7344 3.93744 19.6969 3.71244 19.5469 3.50619C19.4437 3.37494 19.2562 3.17807 19.125 3.07494C18.9937 2.97182 18.7031 2.87807 18.4687 2.84994C18.1594 2.81244 17.9625 2.84994 17.7187 2.98119C17.5406 3.08432 17.3062 3.28119 17.2031 3.41244ZM2.8125 8.43744H11.3437V5.62494H2.8125V8.43744ZM25.4062 8.43744H33.8437V5.62494H25.4062V8.43744ZM2.8125 45.1874H33.8437L33.8531 40.3593C33.375 40.7343 32.775 41.1843 32.2031 41.6156L31.1719 42.3843L11.25 42.3749V39.5624H28.9687C28.9687 39.2343 28.9031 38.1937 28.8281 37.0312L28.6969 34.9218L33.8344 23.8593L33.8437 11.2499H2.8125V45.1874ZM39.3281 18.7781C39.3281 18.8249 39.8812 19.1156 40.5469 19.4156C41.2125 19.7249 41.7844 19.9781 41.8125 19.9781C41.8406 19.9781 42.375 18.8624 43.0125 17.5124C43.6406 16.1531 44.1656 14.9999 44.1844 14.9437C44.1937 14.8874 43.6781 14.5968 43.0312 14.3062C42.3844 14.0062 41.8125 13.7437 41.7656 13.7249C41.7094 13.6968 41.1375 14.8124 40.5 16.1906C39.8531 17.5687 39.3281 18.7312 39.3281 18.7781ZM34.9594 28.1062C33.2437 31.7999 31.7812 34.9593 31.7062 35.1093C31.6031 35.3343 31.5844 35.6812 31.6312 36.8624C31.6687 37.9593 31.7156 38.3437 31.8094 38.3343C31.8656 38.3343 32.4281 37.9499 33.0375 37.4718L34.1531 36.6093C39.1406 25.8562 40.5937 22.6874 40.5937 22.6406C40.5937 22.5843 40.3594 22.4343 40.0594 22.3031C39.7594 22.1624 39.1875 21.8999 38.7937 21.7218L38.0719 21.3843L34.9594 28.1062ZM14.1562 14.0624H22.5937V16.4062L22.9875 16.6124C23.2125 16.7156 23.5594 16.9218 24.1406 17.3249L25.1437 16.7718C25.6969 16.4718 26.175 16.2281 26.1937 16.2468C26.2125 16.2562 27.1406 17.9156 28.2562 19.9218C29.3719 21.9374 30.2719 23.5874 30.2531 23.5874C30.2437 23.5968 29.775 23.8499 28.2187 24.7031V26.0156L29.2219 26.5874C29.775 26.8968 30.225 27.1968 30.2156 27.2437C30.2062 27.2906 29.3062 28.9312 28.2187 30.8906C27.1219 32.8499 26.2125 34.4718 26.1937 34.4999C26.175 34.5281 25.6875 34.2843 24.0469 33.3562L23.7187 33.5531C23.5406 33.6656 23.2125 33.8531 22.5937 34.1718V36.6562H14.1562L14.1094 34.1812L13.5 33.8249C13.1625 33.6281 12.8344 33.4499 12.7687 33.4218C12.7031 33.3937 12.1781 33.6374 11.5969 33.9468C11.0156 34.2656 10.5187 34.4812 10.4812 34.4437C10.4531 34.3968 9.53437 32.7562 8.44687 30.7968C7.35 28.8374 6.45937 27.2156 6.46875 27.1874C6.46875 27.1593 6.9375 26.8874 8.53125 26.0156L8.48437 24.7124L7.54687 24.1781C7.03125 23.8781 6.5625 23.6249 6.51562 23.6062C6.45937 23.5781 7.32187 21.9468 8.41875 19.9687C9.525 17.9812 10.4531 16.3218 10.4812 16.2843C10.5187 16.2374 10.9781 16.4343 11.5031 16.7249C12.0375 17.0156 12.5062 17.2499 12.5625 17.2499C12.6094 17.2499 12.7687 17.1749 12.9094 17.0812C13.05 16.9781 13.3875 16.7906 14.1562 16.4062V14.0624ZM16.9219 18.3093C15.6094 18.8343 14.9812 19.1343 14.6812 19.3124C14.3906 19.4906 13.875 19.8843 13.5375 20.1843L12.9375 20.7187C11.925 20.1749 11.6156 20.0343 11.5969 20.0624C11.5687 20.0906 11.2781 20.6156 10.9312 21.2343C10.5937 21.8531 10.3125 22.3968 10.3125 22.4343C10.3125 22.4718 10.5937 22.6593 10.9312 22.8562L11.5594 23.2031C11.4562 23.7843 11.4094 24.3562 11.3719 24.8437C11.3344 25.3874 11.3625 26.0343 11.4281 26.4843C11.4937 26.8968 11.5594 27.2999 11.5781 27.3749C11.6062 27.4687 11.4094 27.6281 10.9687 27.8718C10.6031 28.0593 10.3125 28.2562 10.3125 28.2937C10.3031 28.3312 10.5844 28.8656 10.9312 29.4843C11.2687 30.1031 11.5687 30.6281 11.5969 30.6562C11.6156 30.6843 11.9344 30.5437 12.3094 30.3374L12.9844 29.9718C14.1844 30.9374 14.7937 31.3499 15.1125 31.5187C15.4406 31.6781 15.975 31.9031 16.3125 32.0156L16.9219 32.2218L16.9687 33.8437H19.7812L19.8281 32.2406C21.0656 31.7812 21.6562 31.4999 21.9375 31.3312C22.2187 31.1624 22.725 30.7968 23.0625 30.5156C23.4 30.2343 23.7 29.9999 23.7375 29.9999C23.775 29.9999 24.0844 30.1593 24.4219 30.3562C24.825 30.5812 25.0687 30.6749 25.125 30.6093C25.1719 30.5624 25.4812 30.0187 25.8187 29.4187C26.1562 28.8093 26.4375 28.2937 26.4375 28.2656C26.4375 28.2374 26.1375 28.0593 25.7719 27.8718C25.1062 27.5156 25.1062 27.5156 25.1625 27.1874C25.1906 27.0093 25.2656 26.5218 25.3219 26.1093C25.4062 25.5468 25.3969 25.1249 25.3219 24.4218C25.2562 23.9062 25.1906 23.4187 25.1625 23.3437C25.1437 23.2499 25.3312 23.0906 25.7812 22.8562C26.1375 22.6593 26.4375 22.4906 26.4375 22.4812C26.4375 22.4624 26.1656 21.9468 25.8187 21.3281C25.4812 20.7093 25.1625 20.1656 25.1156 20.1093C25.0687 20.0531 24.8062 20.1468 24.4031 20.3812L23.7656 20.7374C23.2594 20.2406 22.875 19.9124 22.5937 19.6874C22.3125 19.4718 21.8437 19.1812 21.5625 19.0406C21.2812 18.8906 20.7562 18.6749 20.4094 18.5531L19.7812 18.3281V16.8749H16.9781L16.9219 18.3093ZM5.625 39.5624H8.4375V42.3749H5.625V39.5624ZM18.5156 21.2156C19.3875 21.2343 19.5094 21.2624 20.1562 21.5812C20.6437 21.8156 21.0094 22.0874 21.375 22.4718C21.6562 22.7718 22.0031 23.2593 22.1437 23.5593C22.2844 23.8499 22.4531 24.3843 22.5094 24.7312C22.5844 25.2093 22.5844 25.5187 22.5 26.0156C22.4437 26.3812 22.275 26.9062 22.1437 27.1874C22.0031 27.4781 21.6562 27.9562 21.375 28.2562C21.0187 28.6218 20.6437 28.9031 20.2031 29.1187C19.8375 29.2968 19.2937 29.4749 18.9844 29.5218C18.675 29.5593 18.1219 29.5593 17.7656 29.5124C17.3531 29.4656 16.875 29.3249 16.5 29.1374C16.1344 28.9687 15.6844 28.6406 15.3937 28.3499C15.0844 28.0312 14.775 27.5718 14.55 27.1218C14.2125 26.4187 14.2031 26.3624 14.2031 25.3593C14.2031 24.3843 14.2219 24.2906 14.5125 23.6718C14.6812 23.3156 14.9625 22.8468 15.1312 22.6406C15.3 22.4343 15.6844 22.1062 15.9844 21.8999C16.2937 21.6937 16.7719 21.4499 17.0625 21.3562C17.4469 21.2343 17.8125 21.1968 18.5156 21.2156ZM17.1562 24.6843C17.0531 24.8531 16.9687 25.1437 16.9687 25.3406C16.9687 25.5281 17.025 25.8093 17.1 25.9499C17.1656 26.0906 17.325 26.2968 17.4469 26.4187C17.5687 26.5312 17.8406 26.6624 18.0469 26.7093C18.2812 26.7656 18.5437 26.7656 18.75 26.6999C18.9281 26.6437 19.2094 26.4656 19.3781 26.2874C19.5656 26.0906 19.7062 25.8374 19.7437 25.6218C19.7812 25.3687 19.7437 25.1437 19.6031 24.8249C19.4812 24.5437 19.2844 24.3093 19.0969 24.1874C18.9094 24.0749 18.6281 23.9999 18.375 23.9999C18.1125 23.9999 17.8312 24.0749 17.6437 24.1874C17.475 24.2906 17.2594 24.5156 17.1562 24.6843Z" fill="white"/>
</g>
<defs>
<clipPath id="clip0_276_70">
<rect width="48" height="48" fill="white"/>
</clipPath>
</defs>
</svg>
